<?xml version="1.0" encoding="UTF-8"?>
<svg version="1.1" xmlns="http://www.w3.org/2000/svg" width="500" height="500">
<path d="M0 0 C0.61053223 0.37688965 1.22106445 0.7537793 1.85009766 1.14208984 C3.26911994 2.04065177 4.64081875 3.01325581 6 4 C6 4.66 6 5.32 6 6 C6.68320312 6.21140625 7.36640625 6.4228125 8.0703125 6.640625 C11.92437459 8.42890981 14.71814888 10.94238838 17.875 13.75 C18.46152344 14.26304688 19.04804688 14.77609375 19.65234375 15.3046875 C20.83507865 16.33925561 22.0144655 17.3776641 23.19042969 18.41992188 C24.44677327 19.51693424 25.7196368 20.59519887 27.00488281 21.65820312 C27.64522461 22.18865234 28.28556641 22.71910156 28.9453125 23.265625 C29.53070801 23.74290039 30.11610352 24.22017578 30.71923828 24.71191406 C32 26 32 26 32 28 C32.66 28 33.32 28 34 28 C34 28.66 34 29.32 34 30 C34.66 30 35.32 30 36 30 C36 30.66 36 31.32 36 32 C36.66 32 37.32 32 38 32 C38 32.66 38 33.32 38 34 C38.66 34 39.32 34 40 34 C41.56432787 35.69274284 43.05328572 37.45569852 44.5 39.25 C45.69109375 40.71179688 45.69109375 40.71179688 46.90625 42.203125 C48.58748034 44.44894762 49.88135899 46.4465803 51 49 C51.66 49 52.32 49 53 49 C54.65625 51.01171875 54.65625 51.01171875 56.5 53.6875 C57.1084375 54.55761719 57.716875 55.42773438 58.34375 56.32421875 C59.89730485 58.8340892 61.00165175 61.22958361 62 64 C62.66 64 63.32 64 64 64 C65.10986328 65.50610352 65.10986328 65.50610352 66.3203125 67.62890625 C66.76906738 68.40854736 67.21782227 69.18818848 67.68017578 69.99145508 C68.39536377 71.26412231 68.39536377 71.26412231 69.125 72.5625 C69.6185498 73.43221436 70.11209961 74.30192871 70.62060547 75.19799805 C71.62234189 76.97013838 72.61991598 78.7446381 73.61328125 80.52148438 C74.7932845 82.63053244 75.98800895 84.73014726 77.1875 86.828125 C102.30600356 132.00091769 111.46212159 187.00883577 104 238 C103.89816406 238.73154297 103.79632813 239.46308594 103.69140625 240.21679688 C100.77163036 260.85348449 95.43158314 280.92156523 87 300 C86.7323584 300.60908203 86.4647168 301.21816406 86.18896484 301.84570312 C80.63648732 314.3740488 74.00190905 326.22927593 67 338 C66.5364209 338.79132324 66.0728418 339.58264648 65.59521484 340.39794922 C65.15516113 341.13158691 64.71510742 341.86522461 64.26171875 342.62109375 C63.87330811 343.27392334 63.48489746 343.92675293 63.0847168 344.59936523 C62.72676025 345.06157471 62.36880371 345.52378418 62 346 C61.34 346 60.68 346 60 346 C59.70996094 346.98033203 59.70996094 346.98033203 59.4140625 347.98046875 C57.38723907 352.30846464 54.43635172 355.66860289 51.375 359.3125 C50.4320105 360.44764038 50.4320105 360.44764038 49.4699707 361.60571289 C45.63694821 366.17819033 41.7161921 370.57055793 37.35546875 374.65234375 C35.87818413 375.97782483 35.87818413 375.97782483 35 378 C34.34 378 33.68 378 33 378 C32.690625 378.8353125 32.690625 378.8353125 32.375 379.6875 C30.42316968 382.97012371 28.05769006 384.70673246 25 387 C24.34 387 23.68 387 23 387 C23 387.66 23 388.32 23 389 C22.34 389 21.68 389 21 389 C21 389.66 21 390.32 21 391 C19.35 391.66 17.7 392.32 16 393 C16 393.66 16 394.32 16 395 C14.5222168 396.30932617 14.5222168 396.30932617 12.44921875 397.79296875 C11.31432007 398.61051636 11.31432007 398.61051636 10.15649414 399.44458008 C9.34172607 400.01974365 8.52695801 400.59490723 7.6875 401.1875 C6.45858032 402.06281372 6.45858032 402.06281372 5.20483398 402.95581055 C-11.80178267 415 -11.80178267 415 -16 415 C-16 415.66 -16 416.32 -16 417 C-43.07343639 430.71937256 -68.62672022 439.84041422 -98.4230957 445.50683594 C-100.16906575 445.84097705 -101.91280065 446.18697637 -103.65429688 446.54370117 C-113.53559001 448.46586363 -123.97348007 448.10116688 -134 448.125 C-135.05469482 448.12959229 -136.10938965 448.13418457 -137.19604492 448.13891602 C-150.70505113 448.11297906 -163.74369728 447.0085009 -177 444.375 C-177.99814224 444.17858917 -177.99814224 444.17858917 -179.01644897 443.97821045 C-198.24377379 440.16748211 -216.36646752 434.59534542 -234 426 C-234.6801416 425.6690332 -235.3602832 425.33806641 -236.06103516 424.99707031 C-240.06185691 423.03870721 -244.03575331 421.03153916 -248 419 C-249.33245844 418.33158642 -250.66537967 417.66408644 -252 417 C-252 416.34 -252 415.68 -252 415 C-252.5259375 414.9175 -253.051875 414.835 -253.59375 414.75 C-256.91118354 413.71599474 -259.61977026 411.89223707 -262.5 410 C-263.42268677 409.39986084 -263.42268677 409.39986084 -264.36401367 408.78759766 C-270.44656122 404.78577749 -276.23726844 400.44970411 -282 396 C-282.90621094 395.32324219 -283.81242187 394.64648438 -284.74609375 393.94921875 C-285.57238281 393.32660156 -286.39867187 392.70398438 -287.25 392.0625 C-288.34054687 391.24458984 -288.34054687 391.24458984 -289.453125 390.41015625 C-289.96359375 389.94480469 -290.4740625 389.47945313 -291 389 C-291 388.34 -291 387.68 -291 387 C-291.66 387 -292.32 387 -293 387 C-293 386.34 -293 385.68 -293 385 C-293.58177002 384.74275146 -294.16354004 384.48550293 -294.76293945 384.22045898 C-297.19883526 382.8915227 -298.82978378 381.42885569 -300.79296875 379.47265625 C-301.50163086 378.76802246 -302.21029297 378.06338867 -302.94042969 377.33740234 C-303.68196289 376.58668457 -304.42349609 375.8359668 -305.1875 375.0625 C-306.32880371 373.91322021 -306.32880371 373.91322021 -307.49316406 372.74072266 C-313.04649434 367.09361019 -318.2314931 361.33300579 -323 355 C-323.81404297 353.93458984 -323.81404297 353.93458984 -324.64453125 352.84765625 C-328 348.32747934 -328 348.32747934 -328 346 C-328.66 346 -329.32 346 -330 346 C-331.76732368 343.57606649 -333.39852451 341.15642664 -335 338.625 C-335.48621826 337.86203613 -335.97243652 337.09907227 -336.47338867 336.31298828 C-344.21421153 324.0315013 -351.1738763 311.69438971 -356.20214844 298.05322266 C-357.20432904 295.47417158 -358.31410024 292.94680216 -359.41015625 290.40625 C-362.14975175 283.85874417 -364.20462379 277.20211218 -366.125 270.375 C-366.47191895 269.146604 -366.81883789 267.91820801 -367.17626953 266.65258789 C-369.60615233 257.85220637 -371.61280842 249.14356568 -372.73974609 240.08349609 C-373.0044941 237.96402189 -373.30853112 235.85233528 -373.61328125 233.73828125 C-376.67607767 210.88452626 -375.65540622 187.70222801 -372 165 C-371.89316895 164.28312012 -371.78633789 163.56624023 -371.67626953 162.82763672 C-365.43604235 121.11340871 -346.09726305 76.2464927 -317 45 C-316.34 45 -315.68 45 -315 45 C-314.731875 44.4225 -314.46375 43.845 -314.1875 43.25 C-312.97070811 40.94449957 -311.69666121 38.97943808 -310 37 C-309.34 37 -308.68 37 -308 37 C-307.79632813 36.47019531 -307.59265625 35.94039063 -307.3828125 35.39453125 C-305.39941815 31.96000939 -302.69908793 29.44641973 -299.875 26.6875 C-299.28243408 26.10427979 -298.68986816 25.52105957 -298.0793457 24.92016602 C-281.08578364 8.28891032 -261.47561848 -5.79151939 -240 -16 C-238.01959167 -17.01842242 -236.04038372 -18.03918315 -234.0625 -19.0625 C-213.31583818 -29.32720964 -190.75774302 -35.15355027 -168 -39 C-166.73929688 -39.22558594 -165.47859375 -39.45117188 -164.1796875 -39.68359375 C-106.14237342 -48.32364564 -48.72074259 -30.84774569 0 0 Z " fill="#100F0F" transform="translate(384,46)"/>
<path d="M0 0 C16.88249666 -0.07044057 33.76494672 -0.12315828 50.64755726 -0.15543652 C58.48847716 -0.17082989 66.32930516 -0.19177311 74.17016602 -0.22631836 C81.01343422 -0.25645375 87.85663579 -0.27562952 94.69996852 -0.28226548 C98.31515212 -0.28613742 101.93014526 -0.2950744 105.54526711 -0.31719017 C134.7949002 -0.48895403 168.19908111 0.86851255 191 22 C196.20910354 27.15319188 200.1797663 32.22547036 203 39 C203.5878125 40.299375 203.5878125 40.299375 204.1875 41.625 C205.85315742 46.49384476 206.13727998 51.32288687 206.125 56.4375 C206.12757813 57.50871094 206.13015625 58.57992187 206.1328125 59.68359375 C205.57690044 73.56504492 198.73876412 85.79583273 188.91015625 95.4453125 C180.42101737 102.897523 170.59229038 106.59981211 160 110 C162.84294277 111.89529518 164.85677734 112.50030803 168.13989258 113.19042969 C186.17870219 117.0188643 203.58790819 126.45317798 214 142 C222.03771235 155.02367294 225.08851978 170.05486891 222.45703125 185.10546875 C221.76827118 187.80342946 220.94606218 190.38201759 220 193 C219.7215625 193.82757813 219.443125 194.65515625 219.15625 195.5078125 C212.76110752 213.09445432 199.45180823 225.94206432 182.83642578 234.05664062 C172.35833858 238.75683104 161.31982298 242.07560927 150 244 C148.58009262 244.25300621 148.58009262 244.25300621 147.13150024 244.51112366 C133.26458751 246.60836137 119.30755852 246.25861752 105.31919861 246.20278788 C101.60636135 246.19013868 97.89351955 246.189099 94.18066406 246.18673706 C87.17588806 246.18056342 80.17117577 246.16420939 73.16642761 246.14403808 C65.1807278 246.12154959 57.19502467 246.11065336 49.20930099 246.10064721 C32.80616359 246.07983865 16.40308997 246.04474431 0 246 C0 243.69 0 241.38 0 239 C0.89460937 238.97421875 1.78921875 238.9484375 2.7109375 238.921875 C11.46840187 238.5110771 20.63119678 238.0249298 27 231.25 C30.77593385 225.11410749 31.29753447 218.80422009 31.26069641 211.73353577 C31.26452196 210.9408413 31.26834751 210.14814684 31.27228898 209.33143133 C31.28254254 206.69622701 31.27864149 204.06124369 31.2746582 201.42602539 C31.27900888 199.52814026 31.28419322 197.63025688 31.29014587 195.7323761 C31.30350802 190.59189373 31.3041177 185.45148501 31.30158257 180.31098866 C31.30051109 176.01429704 31.30540072 171.71762021 31.310188 167.42093176 C31.32127331 157.28231885 31.32172591 147.14374299 31.31567383 137.00512695 C31.30963255 126.55660974 31.32195124 116.10822713 31.3432439 105.65973288 C31.36087285 96.67775556 31.36685925 87.69582105 31.36360615 78.71382707 C31.3617954 73.35419994 31.36440887 67.99466887 31.37832069 62.63505745 C31.39091562 57.5944681 31.38893912 52.55408833 31.37590981 47.51350212 C31.37354821 45.66767175 31.37626374 43.82182654 31.38453293 41.97601318 C31.77330682 27.28670625 31.77330682 27.28670625 25.875 14.1875 C17.98910627 8.18736347 9.70208047 7.04887356 0 6 C0 4.02 0 2.04 0 0 Z " fill="#E5C375" transform="translate(146,130)"/>
<path d="M0 0 C0.61053223 0.37688965 1.22106445 0.7537793 1.85009766 1.14208984 C3.26911994 2.04065177 4.64081875 3.01325581 6 4 C6 4.66 6 5.32 6 6 C6.68320312 6.21140625 7.36640625 6.4228125 8.0703125 6.640625 C11.92437459 8.42890981 14.71814888 10.94238838 17.875 13.75 C18.46152344 14.26304688 19.04804688 14.77609375 19.65234375 15.3046875 C20.83507865 16.33925561 22.0144655 17.3776641 23.19042969 18.41992188 C24.44677327 19.51693424 25.7196368 20.59519887 27.00488281 21.65820312 C27.64522461 22.18865234 28.28556641 22.71910156 28.9453125 23.265625 C29.53070801 23.74290039 30.11610352 24.22017578 30.71923828 24.71191406 C32 26 32 26 32 28 C32.66 28 33.32 28 34 28 C34 28.66 34 29.32 34 30 C34.66 30 35.32 30 36 30 C36 30.66 36 31.32 36 32 C36.66 32 37.32 32 38 32 C38 32.66 38 33.32 38 34 C38.66 34 39.32 34 40 34 C41.56432787 35.69274284 43.05328572 37.45569852 44.5 39.25 C45.69109375 40.71179688 45.69109375 40.71179688 46.90625 42.203125 C48.58748034 44.44894762 49.88135899 46.4465803 51 49 C51.66 49 52.32 49 53 49 C54.65625 51.01171875 54.65625 51.01171875 56.5 53.6875 C57.1084375 54.55761719 57.716875 55.42773438 58.34375 56.32421875 C59.89730485 58.8340892 61.00165175 61.22958361 62 64 C62.66 64 63.32 64 64 64 C65.10986328 65.50610352 65.10986328 65.50610352 66.3203125 67.62890625 C66.76906738 68.40854736 67.21782227 69.18818848 67.68017578 69.99145508 C68.39536377 71.26412231 68.39536377 71.26412231 69.125 72.5625 C69.6185498 73.43221436 70.11209961 74.30192871 70.62060547 75.19799805 C71.62234189 76.97013838 72.61991598 78.7446381 73.61328125 80.52148438 C74.7932845 82.63053244 75.98800895 84.73014726 77.1875 86.828125 C102.30600356 132.00091769 111.46212159 187.00883577 104 238 C103.89816406 238.73154297 103.79632813 239.46308594 103.69140625 240.21679688 C100.77163036 260.85348449 95.43158314 280.92156523 87 300 C86.7323584 300.60908203 86.4647168 301.21816406 86.18896484 301.84570312 C80.63648732 314.3740488 74.00190905 326.22927593 67 338 C66.5364209 338.79132324 66.0728418 339.58264648 65.59521484 340.39794922 C65.15516113 341.13158691 64.71510742 341.86522461 64.26171875 342.62109375 C63.87330811 343.27392334 63.48489746 343.92675293 63.0847168 344.59936523 C62.72676025 345.06157471 62.36880371 345.52378418 62 346 C61.34 346 60.68 346 60 346 C59.70996094 346.98033203 59.70996094 346.98033203 59.4140625 347.98046875 C57.38723907 352.30846464 54.43635172 355.66860289 51.375 359.3125 C50.4320105 360.44764038 50.4320105 360.44764038 49.4699707 361.60571289 C45.63694821 366.17819033 41.7161921 370.57055793 37.35546875 374.65234375 C35.87818413 375.97782483 35.87818413 375.97782483 35 378 C34.34 378 33.68 378 33 378 C32.690625 378.8353125 32.690625 378.8353125 32.375 379.6875 C30.42316968 382.97012371 28.05769006 384.70673246 25 387 C24.34 387 23.68 387 23 387 C23 387.66 23 388.32 23 389 C22.34 389 21.68 389 21 389 C21 389.66 21 390.32 21 391 C19.35 391.66 17.7 392.32 16 393 C16 393.66 16 394.32 16 395 C14.5222168 396.30932617 14.5222168 396.30932617 12.44921875 397.79296875 C11.31432007 398.61051636 11.31432007 398.61051636 10.15649414 399.44458008 C9.34172607 400.01974365 8.52695801 400.59490723 7.6875 401.1875 C6.45858032 402.06281372 6.45858032 402.06281372 5.20483398 402.95581055 C-11.80178267 415 -11.80178267 415 -16 415 C-16 415.66 -16 416.32 -16 417 C-43.07343639 430.71937256 -68.62672022 439.84041422 -98.4230957 445.50683594 C-100.16906575 445.84097705 -101.91280065 446.18697637 -103.65429688 446.54370117 C-113.53559001 448.46586363 -123.97348007 448.10116688 -134 448.125 C-135.05469482 448.12959229 -136.10938965 448.13418457 -137.19604492 448.13891602 C-150.70505113 448.11297906 -163.74369728 447.0085009 -177 444.375 C-177.99814224 444.17858917 -177.99814224 444.17858917 -179.01644897 443.97821045 C-198.24377379 440.16748211 -216.36646752 434.59534542 -234 426 C-234.6801416 425.6690332 -235.3602832 425.33806641 -236.06103516 424.99707031 C-240.06185691 423.03870721 -244.03575331 421.03153916 -248 419 C-249.33245844 418.33158642 -250.66537967 417.66408644 -252 417 C-252 416.34 -252 415.68 -252 415 C-252.5259375 414.9175 -253.051875 414.835 -253.59375 414.75 C-256.91118354 413.71599474 -259.61977026 411.89223707 -262.5 410 C-263.42268677 409.39986084 -263.42268677 409.39986084 -264.36401367 408.78759766 C-270.44656122 404.78577749 -276.23726844 400.44970411 -282 396 C-282.90621094 395.32324219 -283.81242187 394.64648438 -284.74609375 393.94921875 C-285.57238281 393.32660156 -286.39867187 392.70398438 -287.25 392.0625 C-288.34054687 391.24458984 -288.34054687 391.24458984 -289.453125 390.41015625 C-289.96359375 389.94480469 -290.4740625 389.47945313 -291 389 C-291 388.34 -291 387.68 -291 387 C-291.66 387 -292.32 387 -293 387 C-293 386.34 -293 385.68 -293 385 C-293.58177002 384.74275146 -294.16354004 384.48550293 -294.76293945 384.22045898 C-297.19883526 382.8915227 -298.82978378 381.42885569 -300.79296875 379.47265625 C-301.50163086 378.76802246 -302.21029297 378.06338867 -302.94042969 377.33740234 C-303.68196289 376.58668457 -304.42349609 375.8359668 -305.1875 375.0625 C-306.32880371 373.91322021 -306.32880371 373.91322021 -307.49316406 372.74072266 C-313.04649434 367.09361019 -318.2314931 361.33300579 -323 355 C-323.81404297 353.93458984 -323.81404297 353.93458984 -324.64453125 352.84765625 C-328 348.32747934 -328 348.32747934 -328 346 C-328.66 346 -329.32 346 -330 346 C-331.76732368 343.57606649 -333.39852451 341.15642664 -335 338.625 C-335.48621826 337.86203613 -335.97243652 337.09907227 -336.47338867 336.31298828 C-344.21421153 324.0315013 -351.1738763 311.69438971 -356.20214844 298.05322266 C-357.20432904 295.47417158 -358.31410024 292.94680216 -359.41015625 290.40625 C-362.14975175 283.85874417 -364.20462379 277.20211218 -366.125 270.375 C-366.47191895 269.146604 -366.81883789 267.91820801 -367.17626953 266.65258789 C-369.60615233 257.85220637 -371.61280842 249.14356568 -372.73974609 240.08349609 C-373.0044941 237.96402189 -373.30853112 235.85233528 -373.61328125 233.73828125 C-376.67607767 210.88452626 -375.65540622 187.70222801 -372 165 C-371.89316895 164.28312012 -371.78633789 163.56624023 -371.67626953 162.82763672 C-365.43604235 121.11340871 -346.09726305 76.2464927 -317 45 C-316.34 45 -315.68 45 -315 45 C-314.731875 44.4225 -314.46375 43.845 -314.1875 43.25 C-312.97070811 40.94449957 -311.69666121 38.97943808 -310 37 C-309.34 37 -308.68 37 -308 37 C-307.79632813 36.47019531 -307.59265625 35.94039063 -307.3828125 35.39453125 C-305.39941815 31.96000939 -302.69908793 29.44641973 -299.875 26.6875 C-299.28243408 26.10427979 -298.68986816 25.52105957 -298.0793457 24.92016602 C-281.08578364 8.28891032 -261.47561848 -5.79151939 -240 -16 C-238.01959167 -17.01842242 -236.04038372 -18.03918315 -234.0625 -19.0625 C-213.31583818 -29.32720964 -190.75774302 -35.15355027 -168 -39 C-166.73929688 -39.22558594 -165.47859375 -39.45117188 -164.1796875 -39.68359375 C-106.14237342 -48.32364564 -48.72074259 -30.84774569 0 0 Z M-235 -1 C-237.08043804 0.00600962 -239.16362543 1.00636076 -241.25 2 C-251.98442533 7.38171865 -261.51619306 14.69578207 -271 22 C-271.80824219 22.61230469 -272.61648438 23.22460938 -273.44921875 23.85546875 C-289.38658969 36.21022407 -303.23242412 50.64879906 -315 67 C-315.90878906 68.24910156 -315.90878906 68.24910156 -316.8359375 69.5234375 C-329.75050983 87.58046398 -339.79459663 106.87890504 -347.20849609 127.77783203 C-347.8531026 129.5875817 -348.52596283 131.38724824 -349.20703125 133.18359375 C-352.93938725 143.42898532 -354.93368286 154.31588835 -357 165 C-357.19198975 165.90234375 -357.38397949 166.8046875 -357.58178711 167.734375 C-359.56498275 178.31141842 -359.3365715 189.00218785 -359.31567383 199.7265625 C-359.31252644 203.09668739 -359.33599151 206.46592134 -359.36132812 209.8359375 C-359.3993443 222.8451792 -358.58676051 235.24537261 -356 248 C-355.84094681 248.79509476 -355.68189362 249.59018951 -355.51802063 250.40937805 C-352.48128117 265.46043205 -348.34852922 279.98033132 -342 294 C-341.52820313 295.04994141 -341.52820313 295.04994141 -341.046875 296.12109375 C-330.8551446 318.67219871 -317.88152827 338.97653104 -301.37548828 357.45703125 C-300.08113857 358.90898194 -298.80364189 360.37590633 -297.52734375 361.84375 C-293.65064892 366.25905937 -289.70317206 370.35480984 -285.19384766 374.12475586 C-282.88556936 376.09781234 -280.66882535 378.15110743 -278.44140625 380.21484375 C-273.2069563 384.93241754 -267.68093019 389.01773683 -261.875 393 C-260.86655029 393.69424072 -259.85810059 394.38848145 -258.8190918 395.10375977 C-241.99564176 406.56192952 -223.6670481 416.74851447 -203.921875 422.1484375 C-201.57843897 422.83141752 -199.37395835 423.60007479 -197.1015625 424.4765625 C-153.59141213 441.02889093 -98.71829455 435.48452067 -56 420 C-53.90462843 419.0444309 -51.87649265 418.01941176 -49.84570312 416.93457031 C-47.94496149 415.9721313 -46.04836965 415.2360259 -44.04296875 414.51953125 C-24.13631622 407.2961633 -4.72062289 394.0318356 11 380 C11.48227051 379.57122559 11.96454102 379.14245117 12.46142578 378.70068359 C22.81212692 369.46401803 32.42814058 359.9354786 41 349 C41.70769531 348.10925781 42.41539062 347.21851563 43.14453125 346.30078125 C74.12940821 306.27166993 91.43343108 257.77200722 91.31567383 207.09277344 C91.31251918 204.2671829 91.33605697 201.44264935 91.36132812 198.6171875 C91.41937348 181.63767674 89.1353019 165.46012324 85 149 C84.73703125 147.80890625 84.4740625 146.6178125 84.203125 145.390625 C78.05305793 118.52454255 65.73332531 92.36117175 49.3671875 70.21875 C46.59435729 66.44843302 43.97652214 62.5850884 41.375 58.6953125 C40.694375 57.85613281 40.694375 57.85613281 40 57 C39.34 57 38.68 57 38 57 C37.63068359 56.15501953 37.63068359 56.15501953 37.25390625 55.29296875 C31.52940922 44.82480751 19.55146937 34.12351793 10 27 C9.34 27 8.68 27 8 27 C8 26.34 8 25.68 8 25 C6.51881039 23.61791051 6.51881039 23.61791051 4.55859375 22.25390625 C3.82624512 21.72297363 3.09389648 21.19204102 2.33935547 20.64501953 C-1.38675053 18.02484605 -5.14493889 15.46044838 -8.9375 12.9375 C-9.68451172 12.43412109 -10.43152344 11.93074219 -11.20117188 11.41210938 C-16.32796593 7.99277218 -21.5654554 4.90336976 -27 2 C-27.61141846 1.67185303 -28.22283691 1.34370605 -28.8527832 1.00561523 C-56.68974709 -13.72521438 -88.55054017 -25.11455912 -120.390625 -25.16796875 C-121.16879578 -25.17224884 -121.94696655 -25.17652893 -122.74871826 -25.18093872 C-125.24920499 -25.19087241 -127.7494974 -25.19100219 -130.25 -25.1875 C-131.10480957 -25.18656342 -131.95961914 -25.18562683 -132.84033203 -25.18466187 C-168.6531912 -25.09936514 -203.24567885 -18.29706924 -235 -1 Z " fill="#DDA2A8" transform="translate(384,46)"/>
<path d="M0 0 C60.60410095 0 60.60410095 0 79.70703125 17.4765625 C91.49820724 29.74504247 96.48820371 43.6695608 96.28344727 60.44238281 C95.8896519 74.559575 91.63004008 88.33392386 82 99 C64.2843001 115.27255036 44.49013593 118.69286036 21.12207031 118.15380859 C14.24550911 117.81503525 6.21172678 117.10586339 0 114 C0 76.38 0 38.76 0 0 Z " fill="#11110F" transform="translate(224,247)"/>
<path d="M0 0 C0 0.66 0 1.32 0 2 C-0.66 2 -1.32 2 -2 2 C-1.67 3.65 -1.34 5.3 -1 7 C-2.65 7.33 -4.3 7.66 -6 8 C-6.33 8.99 -6.66 9.98 -7 11 C-0.8849444 11.94470588 4.04538459 12.13160517 9.9921875 10.27734375 C12.57854318 9.9200845 13.74967916 10.77870709 16 12 C15.43716309 12.15557373 14.87432617 12.31114746 14.29443359 12.47143555 C-2.28153932 17.07399579 -17.84476519 22.09411434 -33.13964844 30.04638672 C-35.81690025 31.41874178 -38.53696069 32.70014958 -41.25 34 C-51.98442533 39.38171865 -61.51619306 46.69578207 -71 54 C-71.80824219 54.61230469 -72.61648437 55.22460938 -73.44921875 55.85546875 C-89.05462727 67.95288461 -102.44440897 82.0179579 -114 98 C-114.60714844 98.83402344 -115.21429688 99.66804688 -115.83984375 100.52734375 C-128.74871988 118.5880616 -138.79448076 137.87857844 -146.20849609 158.77783203 C-146.8531026 160.5875817 -147.52596283 162.38724824 -148.20703125 164.18359375 C-151.93938725 174.42898532 -153.93368286 185.31588835 -156 196 C-156.19198975 196.90234375 -156.38397949 197.8046875 -156.58178711 198.734375 C-158.56498275 209.31141842 -158.3365715 220.00218785 -158.31567383 230.7265625 C-158.31252644 234.09668739 -158.33599151 237.46592134 -158.36132812 240.8359375 C-158.3993443 253.8451792 -157.58676051 266.24537261 -155 279 C-154.84094681 279.79509476 -154.68189362 280.59018951 -154.51802063 281.40937805 C-151.48128117 296.46043205 -147.34852922 310.98033132 -141 325 C-140.52820313 326.04994141 -140.52820313 326.04994141 -140.046875 327.12109375 C-129.84044883 349.70471584 -116.84264143 369.98794668 -100.328125 388.50439453 C-99.12089012 389.86386528 -97.93423532 391.24154184 -96.75 392.62109375 C-93.15346069 396.78661682 -89.442461 400.556275 -85.22509766 404.09350586 C-82.90671415 406.07992859 -80.67699393 408.14397918 -78.4375 410.21875 C-73.20435481 414.93481631 -67.67930464 419.01885178 -61.875 423 C-60.86655029 423.69424072 -59.85810059 424.38848145 -58.8190918 425.10375977 C-41.10620375 437.16771084 -21.84819918 447.55968525 -1 453 C-4.08888522 455.05925681 -4.70935927 455.2390374 -8.1875 455.125 C-9.445625 455.08375 -10.70375 455.0425 -12 455 C-13.76462683 458.08809695 -14 459.23312136 -14 463 C-13.34 463.66 -12.68 464.32 -12 465 C-16.8935296 464.41096403 -21.04549076 462.89327899 -25.5 460.875 C-26.53688965 460.41347534 -26.53688965 460.41347534 -27.59472656 459.94262695 C-34.50222011 456.83646172 -41.25987501 453.45203699 -48 450 C-49.33246131 449.33159212 -50.66537343 448.6640739 -52 448 C-52 447.34 -52 446.68 -52 446 C-52.5259375 445.9175 -53.051875 445.835 -53.59375 445.75 C-56.91118354 444.71599474 -59.61977026 442.89223707 -62.5 441 C-63.42268677 440.39986084 -63.42268677 440.39986084 -64.36401367 439.78759766 C-70.44656122 435.78577749 -76.23726844 431.44970411 -82 427 C-82.90621094 426.32324219 -83.81242187 425.64648438 -84.74609375 424.94921875 C-85.57238281 424.32660156 -86.39867188 423.70398438 -87.25 423.0625 C-88.34054688 422.24458984 -88.34054688 422.24458984 -89.453125 421.41015625 C-89.96359375 420.94480469 -90.4740625 420.47945313 -91 420 C-91 419.34 -91 418.68 -91 418 C-91.66 418 -92.32 418 -93 418 C-93 417.34 -93 416.68 -93 416 C-93.58177002 415.74275146 -94.16354004 415.48550293 -94.76293945 415.22045898 C-97.19883526 413.8915227 -98.82978378 412.42885569 -100.79296875 410.47265625 C-101.50163086 409.76802246 -102.21029297 409.06338867 -102.94042969 408.33740234 C-103.68196289 407.58668457 -104.42349609 406.8359668 -105.1875 406.0625 C-106.32880371 404.91322021 -106.32880371 404.91322021 -107.49316406 403.74072266 C-113.04649434 398.09361019 -118.2314931 392.33300579 -123 386 C-123.81404297 384.93458984 -123.81404297 384.93458984 -124.64453125 383.84765625 C-128 379.32747934 -128 379.32747934 -128 377 C-128.66 377 -129.32 377 -130 377 C-131.76732368 374.57606649 -133.39852451 372.15642664 -135 369.625 C-135.48621826 368.86203613 -135.97243652 368.09907227 -136.47338867 367.31298828 C-144.21421153 355.0315013 -151.1738763 342.69438971 -156.20214844 329.05322266 C-157.20432904 326.47417158 -158.31410024 323.94680216 -159.41015625 321.40625 C-162.14975175 314.85874417 -164.20462379 308.20211218 -166.125 301.375 C-166.47191895 300.146604 -166.81883789 298.91820801 -167.17626953 297.65258789 C-169.60615233 288.85220637 -171.61280842 280.14356568 -172.73974609 271.08349609 C-173.0044941 268.96402189 -173.30853112 266.85233528 -173.61328125 264.73828125 C-176.67607767 241.88452626 -175.65540622 218.70222801 -172 196 C-171.89316895 195.28312012 -171.78633789 194.56624023 -171.67626953 193.82763672 C-165.43604235 152.11340871 -146.09726305 107.2464927 -117 76 C-116.34 76 -115.68 76 -115 76 C-114.731875 75.4225 -114.46375 74.845 -114.1875 74.25 C-112.97070811 71.94449957 -111.69666121 69.97943808 -110 68 C-109.34 68 -108.68 68 -108 68 C-107.79632813 67.47019531 -107.59265625 66.94039063 -107.3828125 66.39453125 C-105.39941815 62.96000939 -102.69908793 60.44641973 -99.875 57.6875 C-99.28243408 57.10427979 -98.68986816 56.52105957 -98.0793457 55.92016602 C-81.08578364 39.28891032 -61.47561848 25.20848061 -40 15 C-38.01959167 13.98157758 -36.04038372 12.96081685 -34.0625 11.9375 C-10.15558155 0 -10.15558155 0 0 0 Z " fill="#D8969F" transform="translate(184,15)"/>
<path d="M0 0 C54.99575243 0 54.99575243 0 70.6640625 14.5390625 C78.66578814 22.96897413 81.56734771 33.87994795 81.4375 45.25 C81.43137695 46.1673291 81.42525391 47.0846582 81.41894531 48.02978516 C81.11806494 61.18288655 76.9393632 72.29170049 68.0390625 82.08203125 C49.6724376 99.35791789 23.00780036 95 0 95 C0 63.65 0 32.3 0 0 Z " fill="#10100F" transform="translate(225,142)"/>
<path d="M0 0 C0.66 0 1.32 0 2 0 C2.66 0.99 3.32 1.98 4 3 C4.66 3.33 5.32 3.66 6 4 C5.67 4.66 5.34 5.32 5 6 C5.66 6 6.32 6 7 6 C8.62854823 9.56244925 9.48814344 12.09485248 9 16 C7.6589914 18.907547 5.9982379 21.5937993 4.3125 24.3125 C3.87744141 25.03373047 3.44238281 25.75496094 2.99414062 26.49804688 C2.11783475 27.94557436 1.23390326 29.38851379 0.34228516 30.82666016 C-0.57855245 32.31761985 -1.48441994 33.81789867 -2.37744141 35.32568359 C-2.81620605 36.0573877 -3.2549707 36.7890918 -3.70703125 37.54296875 C-4.09995361 38.20707764 -4.49287598 38.87118652 -4.89770508 39.55541992 C-5.44334106 40.27048706 -5.44334106 40.27048706 -6 41 C-6.66 41 -7.32 41 -8 41 C-8.19335938 41.65355469 -8.38671875 42.30710937 -8.5859375 42.98046875 C-10.61276093 47.30846464 -13.56364828 50.66860289 -16.625 54.3125 C-17.25365967 55.06926025 -17.88231934 55.82602051 -18.5300293 56.60571289 C-22.36305179 61.17819033 -26.2838079 65.57055793 -30.64453125 69.65234375 C-32.12181587 70.97782483 -32.12181587 70.97782483 -33 73 C-33.66 73 -34.32 73 -35 73 C-35.20625 73.556875 -35.4125 74.11375 -35.625 74.6875 C-37.57683032 77.97012371 -39.94230994 79.70673246 -43 82 C-43.66 82 -44.32 82 -45 82 C-45 82.66 -45 83.32 -45 84 C-45.66 84 -46.32 84 -47 84 C-47 84.66 -47 85.32 -47 86 C-49.475 86.99 -49.475 86.99 -52 88 C-52 88.66 -52 89.32 -52 90 C-53.4777832 91.30932617 -53.4777832 91.30932617 -55.55078125 92.79296875 C-56.68567993 93.61051636 -56.68567993 93.61051636 -57.84350586 94.44458008 C-58.65827393 95.01974365 -59.47304199 95.59490723 -60.3125 96.1875 C-61.54141968 97.06281372 -61.54141968 97.06281372 -62.79516602 97.95581055 C-79.80178267 110 -79.80178267 110 -84 110 C-84 110.66 -84 111.32 -84 112 C-111.07343639 125.71937256 -136.62672022 134.84041422 -166.4230957 140.50683594 C-168.16906575 140.84097705 -169.91280065 141.18697637 -171.65429688 141.54370117 C-181.53559001 143.46586363 -191.97348007 143.10116688 -202 143.125 C-203.05469482 143.12959229 -204.10938965 143.13418457 -205.19604492 143.13891602 C-218.80039783 143.11279599 -231.90157214 141.96887841 -245.25 139.3125 C-246.24883713 139.11766022 -246.24883713 139.11766022 -247.26785278 138.91888428 C-258.44698743 136.72882429 -269.27305534 133.85350114 -280 130 C-280 129.34 -280 128.68 -280 128 C-280.99 127.67 -281.98 127.34 -283 127 C-283.25 124.25 -283.25 124.25 -283 121 C-281 118.625 -281 118.625 -279 117 C-279 117.66 -279 118.32 -279 119 C-278.34 119 -277.68 119 -277 119 C-276.505 118.01 -276.505 118.01 -276 117 C-276 117.66 -276 118.32 -276 119 C-274.90429688 118.77828125 -273.80859375 118.5565625 -272.6796875 118.328125 C-267.13187432 117.64224893 -262.42030776 119.22123279 -257.125 120.75 C-214.21805557 132.10038356 -157.88593326 132.32393677 -117.84570312 110.93457031 C-115.94496149 109.9721313 -114.04836965 109.2360259 -112.04296875 108.51953125 C-92.13731819 101.29652687 -72.71869805 88.03278091 -57 74 C-56.51241211 73.5659082 -56.02482422 73.13181641 -55.52246094 72.68457031 C-51.96642086 69.50659579 -48.47074338 66.27088315 -45 63 C-44.2678125 62.31035156 -43.535625 61.62070312 -42.78125 60.91015625 C-37.37149627 55.66140709 -32.65567695 49.91958925 -28 44 C-27.29101562 43.10796875 -26.58203125 42.2159375 -25.8515625 41.296875 C-15.9077412 28.44529368 -7.37666528 14.46761465 0 0 Z " fill="#E1AAB0" transform="translate(452,351)"/>
<path d="M0 0 C1.63108809 2.352011 2.05632802 3.34283977 1.8125 6.1875 C1.544375 6.785625 1.27625 7.38375 1 8 C0.01 8.33 -0.98 8.66 -2 9 C-1.01 11.475 -1.01 11.475 0 14 C-1.98 14 -3.96 14 -6 14 C-6.33 13.01 -6.66 12.02 -7 11 C-7.87011719 11.26876953 -7.87011719 11.26876953 -8.7578125 11.54296875 C-14.28569649 12.66973256 -20.71229963 9.78550281 -26 8.1875 C-32.88666756 6.18328384 -39.84334878 4.71729718 -46.875 3.3125 C-48.47988281 2.99091919 -48.47988281 2.99091919 -50.1171875 2.6628418 C-58.58301949 1.00472924 -66.7665999 -0.15368304 -75.390625 -0.16796875 C-76.1693396 -0.17211288 -76.9480542 -0.17625702 -77.75036621 -0.18052673 C-80.25029319 -0.19012628 -82.75005758 -0.19019687 -85.25 -0.1875 C-86.10082153 -0.18756042 -86.95164307 -0.18762085 -87.82824707 -0.18768311 C-103.02699443 -0.17226274 -117.96715001 0.23812193 -132.8515625 3.6328125 C-136.07430355 4.18360824 -139.22989845 4.02176111 -142.48828125 3.9296875 C-145.19312374 4.00540626 -147.55903253 4.49671277 -150.1875 5.125 C-154.81969319 6.17876907 -157.60332966 5.72043622 -162 4 C-161.67 2.68 -161.34 1.36 -161 0 C-159.35 0 -157.7 0 -156 0 C-156 -0.66 -156 -1.32 -156 -2 C-156.99 -2.33 -157.98 -2.66 -159 -3 C-158.34 -3 -157.68 -3 -157 -3 C-157 -3.66 -157 -4.32 -157 -5 C-156.34 -5 -155.68 -5 -155 -5 C-155 -5.99 -155 -6.98 -155 -8 C-105.90544402 -19.60099517 -46.55489248 -24.70124452 0 0 Z " fill="#E6B4B8" transform="translate(339,22)"/>
<path d="M0 0 C0.33 0.66 0.66 1.32 1 2 C1.66 2 2.32 2 3 2 C3.33 1.34 3.66 0.68 4 0 C4 0.66 4 1.32 4 2 C5.09570312 1.77828125 6.19140625 1.5565625 7.3203125 1.328125 C12.86812568 0.64224893 17.57969224 2.22123279 22.875 3.75 C53.6503073 11.89114234 89.4511062 13.86881829 120.69140625 6.875 C124.52329058 6.0281376 128.06048077 5.67550936 132 6 C134 8 134 8 135 11 C133.71034824 12.37562854 132.37310707 13.70766393 131 15 C130.34 15 129.68 15 129 15 C128.67 16.98 128.34 18.96 128 21 C111.18638578 24.31571754 95.13218011 26.05176469 78 26.125 C76.41590332 26.13225098 76.41590332 26.13225098 74.79980469 26.13964844 C61.19662694 26.1103583 48.09749769 24.96869331 34.75 22.3125 C34.08410858 22.18260681 33.41821716 22.05271362 32.73214722 21.91888428 C21.55301257 19.72882429 10.72694466 16.85350114 0 13 C0 12.34 0 11.68 0 11 C-0.99 10.67 -1.98 10.34 -3 10 C-3.36923077 4.58461538 -3.36923077 4.58461538 -1.5 1.625 C-1.005 1.08875 -0.51 0.5525 0 0 Z " fill="#E9BABE" transform="translate(172,468)"/>
<path d="M0 0 C16.28070998 3.48015176 31.13802182 14.22322947 45 23 C45.61053223 23.37688965 46.22106445 23.7537793 46.85009766 24.14208984 C48.26911994 25.04065177 49.64081875 26.01325581 51 27 C51 27.66 51 28.32 51 29 C51.68320312 29.21140625 52.36640625 29.4228125 53.0703125 29.640625 C56.92437459 31.42890981 59.71814888 33.94238838 62.875 36.75 C63.46152344 37.26304688 64.04804688 37.77609375 64.65234375 38.3046875 C65.83507865 39.33925561 67.0144655 40.3776641 68.19042969 41.41992188 C69.44677327 42.51693424 70.7196368 43.59519887 72.00488281 44.65820312 C72.64522461 45.18865234 73.28556641 45.71910156 73.9453125 46.265625 C74.53070801 46.74290039 75.11610352 47.22017578 75.71923828 47.71191406 C77 49 77 49 77 51 C77.66 51 78.32 51 79 51 C79 51.66 79 52.32 79 53 C79.66 53 80.32 53 81 53 C81 53.66 81 54.32 81 55 C81.66 55 82.32 55 83 55 C82.505 55.99 82.505 55.99 82 57 C80.35 56.34 78.7 55.68 77 55 C76.67 55.99 76.34 56.98 76 58 C74.515 58.495 74.515 58.495 73 59 C71.77479736 62.00847418 71.77479736 62.00847418 71 65 C70.071875 64.195625 69.14375 63.39125 68.1875 62.5625 C63.94318491 58.90330654 59.55401741 55.4303664 55.16015625 51.953125 C54.44730469 51.30859375 53.73445313 50.6640625 53 50 C53 49.34 53 48.68 53 48 C52.29875 47.773125 51.5975 47.54625 50.875 47.3125 C48.02504905 46.01143544 46.05801507 44.3950002 43.69042969 42.37963867 C40.83037705 40.04541605 37.76740122 38.03017642 34.6875 36 C34.02161865 35.55994629 33.3557373 35.11989258 32.66967773 34.66650391 C27.89234215 31.53433964 23.08607504 28.60741822 18 26 C16.8553125 25.39671875 15.710625 24.7934375 14.53125 24.171875 C4.62215551 19.02626558 -5.53537317 14.87578771 -16 11 C-16 10.67 -16 10.34 -16 10 C-13.03 10 -10.06 10 -7 10 C-6.67 10.66 -6.34 11.32 -6 12 C-2.97065509 12.65772428 -2.97065509 12.65772428 0 13 C-0.34786708 11.02463255 -0.34786708 11.02463255 -1 9 C-1.66 8.67 -2.32 8.34 -3 8 C-1.68 7.34 -0.36 6.68 1 6 C0.67 4.02 0.34 2.04 0 0 Z " fill="#D18B94" transform="translate(339,23)"/>
<path d="M0 0 C4.72835494 0.42985045 7.03724592 1.04640047 10.46484375 4.44140625 C13.7368739 8.42405559 16.87301157 12.27584676 19 17 C19.66 17 20.32 17 21 17 C22.65625 19.01171875 22.65625 19.01171875 24.5 21.6875 C25.1084375 22.55761719 25.716875 23.42773438 26.34375 24.32421875 C27.89730485 26.8340892 29.00165175 29.22958361 30 32 C30.66 32 31.32 32 32 32 C34.13008956 34.79369275 35.79809248 37.903442 37.5625 40.9375 C38.32336914 42.18370117 38.32336914 42.18370117 39.09960938 43.45507812 C42.34104222 49.00133805 43.88682713 53.57046858 44 60 C44.020625 61.010625 44.04125 62.02125 44.0625 63.0625 C44.041875 63.701875 44.02125 64.34125 44 65 C43.2575 65.12375 42.515 65.2475 41.75 65.375 C39.18551458 65.9578376 37.30833488 66.78664449 35 68 C34.35933594 66.90042969 33.71867187 65.80085938 33.05859375 64.66796875 C26.29728827 53.09290774 19.60046361 41.71478843 11.19921875 31.23730469 C8 27.205991 8 27.205991 8 25 C7.34 25 6.68 25 6 25 C4.64864497 23.46729429 3.36746113 21.87223227 2.125 20.25 C0.09733586 17.61326564 -1.82613411 15.16477883 -4.2421875 12.875 C-6 11 -6 11 -6.25 7.75 C-6.1675 6.8425 -6.085 5.935 -6 5 C-5.34 4.67 -4.68 4.34 -4 4 C-4.99 3.67 -5.98 3.34 -7 3 C-5.5459375 2.814375 -5.5459375 2.814375 -4.0625 2.625 C-2.5465625 2.315625 -2.5465625 2.315625 -1 2 C-0.67 1.34 -0.34 0.68 0 0 Z " fill="#E5B3B7" transform="translate(416,78)"/>
<path d="M0 0 C8.35383481 0.45879425 16.11593009 2.03328091 24.1875 4.1875 C25.95565063 4.65506714 25.95565063 4.65506714 27.75952148 5.13208008 C52.48018103 11.80843784 52.48018103 11.80843784 55.4140625 16.0390625 C56.13794702 18.4616627 56.03266876 19.6963543 55 22 C54.01 22.33 53.02 22.66 52 23 C52.66 24.65 53.32 26.3 54 28 C52.02 28 50.04 28 48 28 C47.505 26.515 47.505 26.515 47 25 C46.12988281 25.26876953 46.12988281 25.26876953 45.2421875 25.54296875 C38.6168178 26.89343609 30.10360592 22.8662524 23.78125 21.00390625 C18.62975843 19.63620652 13.43946679 18.7513731 8.1796875 17.90625 C4.68944409 16.91148775 3.27910872 15.76667924 1 13 C2.33333333 9.66666667 3.66666667 6.33333333 5 3 C2.525 2.01 2.525 2.01 0 1 C0 0.67 0 0.34 0 0 Z " fill="#DDA3A9" transform="translate(285,8)"/>
<path d="M0 0 C0.804375 0.4640625 0.804375 0.4640625 1.625 0.9375 C3.9938109 2.1356272 3.9938109 2.1356272 6.765625 2.34765625 C10.50938075 3.10273742 12.8821178 4.49212208 16.125 6.5 C28.87316448 14.10386204 42.62255148 20.24822055 57 24 C53.91111478 26.05925681 53.29064073 26.2390374 49.8125 26.125 C48.554375 26.08375 47.29625 26.0425 46 26 C44.23537317 29.08809695 44 30.23312136 44 34 C44.66 34.66 45.32 35.32 46 36 C41.1064704 35.41096403 36.95450924 33.89327899 32.5 31.875 C31.80874023 31.56731689 31.11748047 31.25963379 30.40527344 30.94262695 C23.49777989 27.83646172 16.74012499 24.45203699 10 21 C8.66753869 20.33159212 7.33462657 19.6640739 6 19 C6 18.34 6 17.68 6 17 C5.1028125 16.9071875 5.1028125 16.9071875 4.1875 16.8125 C1.13084514 15.67717105 0.53365974 13.78847225 -1 11 C-1.66 10.67 -2.32 10.34 -3 10 C-2 7 -2 7 0.0625 5.8125 C0.701875 5.544375 1.34125 5.27625 2 5 C1.34 5 0.68 5 0 5 C-0.33 4.01 -0.66 3.02 -1 2 C-0.67 1.34 -0.34 0.68 0 0 Z " fill="#DA99A2" transform="translate(126,444)"/>
<path d="M0 0 C0.66 0 1.32 0 2 0 C2.66 0.99 3.32 1.98 4 3 C4.66 3.33 5.32 3.66 6 4 C5.67 4.66 5.34 5.32 5 6 C5.66 6 6.32 6 7 6 C8.62854823 9.56244925 9.48814344 12.09485248 9 16 C7.6589914 18.907547 5.9982379 21.5937993 4.3125 24.3125 C3.87744141 25.03373047 3.44238281 25.75496094 2.99414062 26.49804688 C2.11783475 27.94557436 1.23390326 29.38851379 0.34228516 30.82666016 C-0.57855245 32.31761985 -1.48441994 33.81789867 -2.37744141 35.32568359 C-2.81620605 36.0573877 -3.2549707 36.7890918 -3.70703125 37.54296875 C-4.29641479 38.53913208 -4.29641479 38.53913208 -4.89770508 39.55541992 C-5.2614624 40.03213135 -5.62521973 40.50884277 -6 41 C-6.66 41 -7.32 41 -8 41 C-8.268125 41.7425 -8.53625 42.485 -8.8125 43.25 C-9.94229421 45.86636554 -11.20893202 47.80187111 -13 50 C-20.75 49.25 -20.75 49.25 -23 47 C-25.58354218 46.83312552 -25.58354218 46.83312552 -28 47 C-27.38451543 43.39736362 -25.9105928 41.30496753 -23.6875 38.4375 C-14.69675237 26.35820417 -6.83750034 13.41016792 0 0 Z " fill="#E6B5B8" transform="translate(452,351)"/>
<path d="M0 0 C12.68643174 2.71184167 24.18982611 10.08453485 35 17 C34.1875 19.9375 34.1875 19.9375 33 23 C32.01 23.33 31.02 23.66 30 24 C28.66666667 27 28.66666667 27 30 30 C32.00016466 31.20882096 32.00016466 31.20882096 34 32 C34 32.66 34 33.32 34 34 C34.66 34 35.32 34 36 34 C35.505 34.99 35.505 34.99 35 36 C34.23300781 35.46632812 33.46601563 34.93265625 32.67578125 34.3828125 C17.65717333 24.20003907 1.09452021 16.94802259 -16 11 C-16 10.67 -16 10.34 -16 10 C-13.03 10 -10.06 10 -7 10 C-6.67 10.66 -6.34 11.32 -6 12 C-2.97065509 12.65772428 -2.97065509 12.65772428 0 13 C-0.34786708 11.02463255 -0.34786708 11.02463255 -1 9 C-1.66 8.67 -2.32 8.34 -3 8 C-1.68 7.34 -0.36 6.68 1 6 C0.67 4.02 0.34 2.04 0 0 Z " fill="#CD8992" transform="translate(339,23)"/>
<path d="M0 0 C29.37 0 58.74 0 89 0 C85.12205916 1.93897042 84.112799 2.19970658 80.0625 2 C76.22291571 1.9092565 73.46184595 2.15368216 70 4 C70 3.01 70 2.02 70 1 C64.50058401 1.11820571 59.00135035 1.24245121 53.50219727 1.37231445 C51.63114134 1.41564622 49.76004631 1.45732257 47.88891602 1.49731445 C45.20056369 1.55505949 42.51240785 1.61874181 39.82421875 1.68359375 C38.56782845 1.70866249 38.56782845 1.70866249 37.28605652 1.73423767 C33.96326712 1.81914061 31.17247982 1.94250673 28 3 C25.73828125 2.66015625 25.73828125 2.66015625 23.3125 2.0625 C22.50425781 1.86785156 21.69601563 1.67320312 20.86328125 1.47265625 C19.94095703 1.23869141 19.94095703 1.23869141 19 1 C19 1.99 19 2.98 19 4 C19.99 4 20.98 4 22 4 C22 4.66 22 5.32 22 6 C21.34 6 20.68 6 20 6 C20 6.66 20 7.32 20 8 C20.99 8 21.98 8 23 8 C23 7.34 23 6.68 23 6 C23.99 6.33 24.98 6.66 26 7 C26 7.99 26 8.98 26 10 C27.32 10.33 28.64 10.66 30 11 C30 12.98 30 14.96 30 17 C30.66 17 31.32 17 32 17 C34.66621961 23.99553971 34.23727736 31.04163754 34.15625 38.4296875 C34.14730481 39.91771003 34.13915071 41.40573748 34.13171387 42.89376831 C34.10765672 47.03257763 34.06919917 51.1711393 34.02697754 55.30979919 C33.99928006 58.07179243 33.97438924 60.83379916 33.95019531 63.5958252 C33.83411779 76.72491297 33.68970833 89.85360001 33.53643799 102.9822998 C33.47469858 108.30719432 33.41519415 113.63211383 33.35546875 118.95703125 C33.23909404 129.30471227 33.12035847 139.6523646 33 150 C32.67 150 32.34 150 32 150 C31.99761165 149.36923333 31.99522329 148.73846666 31.99276257 148.08858585 C31.93352775 132.71344991 31.85792376 117.33849366 31.76428509 101.96353245 C31.71939272 94.52819299 31.67996311 87.09290072 31.65356445 79.6574707 C31.63053105 73.17385163 31.59707382 66.69038273 31.55129844 60.20688289 C31.52743784 56.77652121 31.50866235 53.34630761 31.50238609 49.91586494 C31.4927402 46.07853326 31.464673 42.24173976 31.43237305 38.40454102 C31.43452568 36.71383987 31.43452568 36.71383987 31.4367218 34.98898315 C31.34531121 27.29210122 30.61744795 20.46426935 25.875 14.1875 C17.98910627 8.18736347 9.70208047 7.04887356 0 6 C0 4.02 0 2.04 0 0 Z " fill="#D5AE62" transform="translate(146,130)"/>
<path d="M0 0 C3.92618451 1.57960446 6.27809432 4.10689311 9.125 7.1875 C9.99382812 8.10917969 10.86265625 9.03085937 11.7578125 9.98046875 C14.24441422 13.32915016 15.256308 15.909694 16 20 C14.625 23.4375 14.625 23.4375 13 26 C12.34 25.67 11.68 25.34 11 25 C9.96875 25.144375 8.9375 25.28875 7.875 25.4375 C2.0540835 24.78029975 -0.30343474 21.28065457 -4 17 C-5.2684375 15.700625 -5.2684375 15.700625 -6.5625 14.375 C-8 12 -8 12 -8 8.8125 C-7 6 -7 6 -5.125 4.875 C-4.42375 4.58625 -3.7225 4.2975 -3 4 C-1.26574227 1.96682993 -1.26574227 1.96682993 0 0 Z " fill="#E5B2B6" transform="translate(74,395)"/>
<path d="M0 0 C1.96331542 0.80912393 3.92093579 1.63116512 5.87890625 2.453125 C9.36926354 3.89157528 12.66919124 5.05006788 16.40625 5.625 C13.31736478 7.68425681 12.69689073 7.8640374 9.21875 7.75 C7.3315625 7.688125 7.3315625 7.688125 5.40625 7.625 C3.64162317 10.71309695 3.40625 11.85812136 3.40625 15.625 C4.06625 16.285 4.72625 16.945 5.40625 17.625 C0.77627173 17.03662152 -3.03009132 15.79073701 -7.28125 13.875 C-8.39886719 13.38515625 -9.51648438 12.8953125 -10.66796875 12.390625 C-13.8488833 10.47103438 -15.00182764 8.93259839 -16.59375 5.625 C-12.37829232 -2.58404916 -8.11170014 -3.10360701 0 0 Z " fill="#E2A7AE" transform="translate(166.59375,462.375)"/>
<path d="M0 0 C2.69904569 1.34952284 3.05501129 2.80653538 4.34765625 5.515625 C4.78787109 6.43730469 5.22808594 7.35898438 5.68164062 8.30859375 C6.13732422 9.27925781 6.59300781 10.24992188 7.0625 11.25 C7.75182617 12.68279297 7.75182617 12.68279297 8.45507812 14.14453125 C10.49275385 18.4472885 12.21804728 22.27554829 13 27 C11.02 26.01 9.04 25.02 7 24 C4.44276044 26.22368658 3.69496146 27.7237531 3 31 C2.36345658 32.3479743 1.70394612 33.68596724 1 35 C-0.54928135 32.67607797 -1.63607817 30.73130052 -2.7265625 28.20703125 C-3.0359375 27.49482422 -3.3453125 26.78261719 -3.6640625 26.04882812 C-3.98117187 25.31083984 -4.29828125 24.57285156 -4.625 23.8125 C-4.94984375 23.06291016 -5.2746875 22.31332031 -5.609375 21.54101562 C-6.40886262 19.6951398 -7.20477953 17.84771816 -8 16 C-5.21592961 12.91763635 -4.19174654 12.04793663 0 11 C0 7.37 0 3.74 0 0 Z " fill="#D1939A" transform="translate(459,131)"/>
<path d="M0 0 C1.0625 1.875 1.0625 1.875 2 4 C1.67 4.66 1.34 5.32 1 6 C2.3921875 6.6496875 2.3921875 6.6496875 3.8125 7.3125 C6.47184073 8.72038627 8.08105905 9.76123556 10 12 C8.35 12.66 6.7 13.32 5 14 C5 14.66 5 15.32 5 16 C3.43945312 17.32861328 3.43945312 17.32861328 1.28125 18.8203125 C0.13076172 19.62275391 0.13076172 19.62275391 -1.04296875 20.44140625 C-1.85378906 20.99699219 -2.66460937 21.55257813 -3.5 22.125 C-4.31082031 22.68832031 -5.12164062 23.25164062 -5.95703125 23.83203125 C-7.96729017 25.22738744 -9.98167493 26.61634849 -12 28 C-12.66 27.01 -13.32 26.02 -14 25 C-13.01 24.67 -12.02 24.34 -11 24 C-10.7525 22.783125 -10.505 21.56625 -10.25 20.3125 C-10.04117187 19.28576172 -10.04117187 19.28576172 -9.828125 18.23828125 C-10.07989127 14.95959773 -11.84980706 13.37938017 -14 11 C-13.07316406 10.28972656 -12.14632813 9.57945312 -11.19140625 8.84765625 C-9.98174158 7.91930895 -8.77210776 6.99092145 -7.5625 6.0625 C-6.95083984 5.59392578 -6.33917969 5.12535156 -5.70898438 4.64257812 C-2.75031115 2.44328176 -2.75031115 2.44328176 0 0 Z " fill="#DBA1A9" transform="translate(395,425)"/>
<path d="M0 0 C3.60571107 0.59283087 5.54429438 2.02741777 8.25 4.4375 C8.95640625 5.05496094 9.6628125 5.67242187 10.390625 6.30859375 C12 8 12 8 12 10 C12.66 10 13.32 10 14 10 C14 10.66 14 11.32 14 12 C14.66 12 15.32 12 16 12 C16 12.66 16 13.32 16 14 C16.66 14 17.32 14 18 14 C17.67 14.66 17.34 15.32 17 16 C15.35 15.34 13.7 14.68 12 14 C11.67 14.99 11.34 15.98 11 17 C10.01 17.33 9.02 17.66 8 18 C6.77479736 21.00847418 6.77479736 21.00847418 6 24 C4.33984619 22.57701102 2.68024699 21.15344741 1.0234375 19.7265625 C-0.31528821 18.58425215 -1.6642017 17.45376463 -3.0234375 16.3359375 C-3.65507812 15.81257813 -4.28671875 15.28921875 -4.9375 14.75 C-5.52402344 14.27046875 -6.11054688 13.7909375 -6.71484375 13.296875 C-8 12 -8 12 -8 10 C-6 9 -4 8 -2 7 C-2 6.01 -2 5.02 -2 4 C-1 1.8125 -1 1.8125 0 0 Z " fill="#D699A0" transform="translate(404,64)"/>
<path d="M0 0 C5.36282279 4.84334707 8.05702406 12.96945783 9 20 C9.80266917 36.56791491 5.95995232 50.10677417 -5.25 62.5625 C-10.55901372 68.02043416 -16.19150511 71.62545803 -23 75 C-23.66 74.01 -24.32 73.02 -25 72 C-19.375 68.125 -19.375 68.125 -16 67 C-15.54625 66.505 -15.0925 66.01 -14.625 65.5 C-12.53081119 63.56690264 -10.77849308 63.37547204 -8 63 C-7.67 61.68 -7.34 60.36 -7 59 C-6.34 59 -5.68 59 -5 59 C-5 57.35 -5 55.7 -5 54 C-4.0409375 53.566875 -4.0409375 53.566875 -3.0625 53.125 C-0.84793921 52.17176549 -0.84793921 52.17176549 0 50 C0.28875 48.9275 0.5775 47.855 0.875 46.75 C2 43 2 43 3.625 39.9375 C5.16903011 36.63889022 5.1530559 34.59681368 5 31 C5.165 30.2575 5.33 29.515 5.5 28.75 C6.26944129 24.51807289 6.07496502 20.2896651 6 16 C5.34 16 4.68 16 4 16 C3.67 15.01 3.34 14.02 3 13 C2.34 13 1.68 13 1 13 C0.875 7.25 0.875 7.25 2 5 C1.34 5 0.68 5 0 5 C0 3.35 0 1.7 0 0 Z " fill="#C19C57" transform="translate(343,160)"/>
<path d="M0 0 C4.09430738 3.75024794 5.81422436 8.27916101 6.1875 13.74609375 C6.1875 16.17173096 6.13398536 18.5783386 6 21 C5.2575 21.12375 4.515 21.2475 3.75 21.375 C0.69357882 21.95498665 0.69357882 21.95498665 -3 24 C-5.97 19.05 -8.94 14.1 -12 9 C-10.68 7.35 -9.36 5.7 -8 4 C-7.67 4.66 -7.34 5.32 -7 6 C-6.38125 5.67 -5.7625 5.34 -5.125 5 C-3 4 -3 4 -1 4 C-0.67 2.68 -0.34 1.36 0 0 Z " fill="#E0A6AC" transform="translate(454,122)"/>
<path d="M0 0 C0.99 0.33 1.98 0.66 3 1 C3 1.66 3 2.32 3 3 C4.32 3.33 5.64 3.66 7 4 C7 4.66 7 5.32 7 6 C7.99 5.67 8.98 5.34 10 5 C10 5.99 10 6.98 10 8 C10.598125 7.773125 11.19625 7.54625 11.8125 7.3125 C12.8953125 7.1578125 12.8953125 7.1578125 14 7 C15.75 8.4375 15.75 8.4375 17 10 C16.67 10.66 16.34 11.32 16 12 C19.1254959 14.64465038 22.08788267 15.84414715 26 17 C26 18.98 26 20.96 26 23 C27.65 23 29.3 23 31 23 C31 27 31 27 30 30 C30.99 30.66 31.98 31.32 33 32 C33.5625 34.9375 33.5625 34.9375 33.74609375 36.8671875 C33.95620175 39.01670267 33.95620175 39.01670267 34.53515625 41.1328125 C36.18934187 47.94674266 36.07690053 54.54176574 35.8125 61.5 C35.78236816 62.4804126 35.75223633 63.4608252 35.72119141 64.47094727 C35.65230713 65.86204712 35.65230713 65.86204712 35.58203125 67.28125 C35.54311768 68.11720703 35.5042041 68.95316406 35.46411133 69.81445312 C34.91378895 72.40597649 34.01600272 73.34011853 32 75 C32.165 73.72125 32.33 72.4425 32.5 71.125 C34.39711345 51.13452092 32.50621698 34.3392237 19.3125 18.3125 C12.33283043 10.78775147 3.58682193 6.34810918 -6 3 C-6 2.67 -6 2.34 -6 2 C-4.02 2 -2.04 2 0 2 C0 1.34 0 0.68 0 0 Z " fill="#C4A15D" transform="translate(286,249)"/>
<path d="M0 0 C0.99 0.33 1.98 0.66 3 1 C3 1.99 3 2.98 3 4 C4.32 4.33 5.64 4.66 7 5 C7 6.98 7 8.96 7 11 C7.66 11 8.32 11 9 11 C11.66621961 17.99553971 11.23727736 25.04163754 11.15625 32.4296875 C11.14730481 33.91771003 11.13915071 35.40573748 11.13171387 36.89376831 C11.10765672 41.03257763 11.06919917 45.1711393 11.02697754 49.30979919 C10.99928006 52.07179243 10.97438924 54.83379916 10.95019531 57.5958252 C10.83411779 70.72491297 10.68970833 83.85360001 10.53643799 96.9822998 C10.47469858 102.30719432 10.41519415 107.63211383 10.35546875 112.95703125 C10.23909404 123.30471227 10.12035847 133.6523646 10 144 C9.67 144 9.34 144 9 144 C8.99761165 143.36923333 8.99522329 142.73846666 8.99276257 142.08858585 C8.93352775 126.71344991 8.85792376 111.33849366 8.76428509 95.96353245 C8.71939272 88.52819299 8.67996311 81.09290072 8.65356445 73.6574707 C8.63053105 67.17385163 8.59707382 60.69038273 8.55129844 54.20688289 C8.52743784 50.77652121 8.50866235 47.34630761 8.50238609 43.91586494 C8.4927402 40.07853326 8.464673 36.24173976 8.43237305 32.40454102 C8.43380814 31.27740692 8.43524323 30.15027283 8.4367218 28.98898315 C8.34453201 21.22649179 7.6737412 14.32411068 2.6875 8.125 C-0.08112923 5.93585131 -2.77719072 4.42403201 -6 3 C-5.67 2.34 -5.34 1.68 -5 1 C-3.35 1.33 -1.7 1.66 0 2 C0 1.34 0 0.68 0 0 Z " fill="#B99B5D" transform="translate(169,136)"/>
<path d="M0 0 C0.66 0.33 1.32 0.66 2 1 C2.89319575 13.05814261 -3.45805616 23.25524076 -10.92578125 32.34375 C-19.84079028 41.87995551 -31.40034328 49.48990852 -44 53 C-43 50 -43 50 -40.125 48.5 C-39.09375 48.005 -38.0625 47.51 -37 47 C-36.505 46.46375 -36.01 45.9275 -35.5 45.375 C-33.2624353 43.32389903 -30.9415302 43.32683669 -28 43 C-28 41.68 -28 40.36 -28 39 C-25.36 38.67 -22.72 38.34 -20 38 C-20 36.35 -20 34.7 -20 33 C-19.34 33 -18.68 33 -18 33 C-17.34 32.34 -16.68 31.68 -16 31 C-13.875 30.375 -13.875 30.375 -12 30 C-11.67 27.69 -11.34 25.38 -11 23 C-9.7934375 22.6596875 -9.7934375 22.6596875 -8.5625 22.3125 C-7.716875 21.879375 -6.87125 21.44625 -6 21 C-5.10613836 18.45224694 -5.10613836 18.45224694 -5 16 C-4.34 16 -3.68 16 -3 16 C-2.855625 15.278125 -2.71125 14.55625 -2.5625 13.8125 C-2.21233883 12.06169413 -1.85878148 10.31155971 -1.5 8.5625 C-0.94467179 5.7164429 -0.46589573 2.8619309 0 0 Z " fill="#EBD897" transform="translate(364,314)"/>
<path d="M0 0 C0.33 0 0.66 0 1 0 C1.90265488 7.1084072 2.08034993 14.04514107 1.96289062 21.19702148 C1.92476051 24.41498345 1.97389402 26.92168205 3 30 C3.66 30.66 4.32 31.32 5 32 C3.9171875 32.99 3.9171875 32.99 2.8125 34 C0.55871748 36.20327759 -0.86311883 38.4299493 -2.375 41.1875 C-4.28022752 44.34898691 -4.8223779 44.92105685 -8.375 46.5 C-11.97556811 46.99663008 -15.37037976 47.14814776 -19 47 C-18.7215625 47.9590625 -18.7215625 47.9590625 -18.4375 48.9375 C-18.293125 49.618125 -18.14875 50.29875 -18 51 C-19 52 -19 52 -21.72265625 52.09765625 C-22.82480469 52.08605469 -23.92695313 52.07445312 -25.0625 52.0625 C-26.16722656 52.05347656 -27.27195313 52.04445313 -28.41015625 52.03515625 C-29.69212891 52.01775391 -29.69212891 52.01775391 -31 52 C-31 50.35 -31 48.7 -31 47 C-29.76636719 46.85304688 -29.76636719 46.85304688 -28.5078125 46.703125 C-15.62940534 45.12112547 -15.62940534 45.12112547 -5 38.25 C-0.22781441 30.49519842 -0.59929945 21.85048256 -0.375 13 C-0.33632812 11.74832031 -0.29765625 10.49664062 -0.2578125 9.20703125 C-0.16410659 6.1381628 -0.0783893 3.06929147 0 0 Z " fill="#E6D293" transform="translate(178,323)"/>
<path d="M0 0 C6.74776985 5.12689563 6.74776985 5.12689563 7.8125 8.8125 C7.874375 9.534375 7.93625 10.25625 8 11 C8.66 11.33 9.32 11.66 10 12 C9.484375 12.391875 8.96875 12.78375 8.4375 13.1875 C7.963125 13.785625 7.48875 14.38375 7 15 C7.2475 16.2375 7.2475 16.2375 7.5 17.5 C7.7475 18.7375 7.7475 18.7375 8 20 C6.5625 21.8125 6.5625 21.8125 5 23 C0.73184401 21.61265978 -1.70663167 19.6463822 -4.8125 16.4375 C-5.60269531 15.63183594 -6.39289063 14.82617188 -7.20703125 13.99609375 C-9 12 -9 12 -9 11 C-6.36 10.67 -3.72 10.34 -1 10 C0.83691257 6.21812119 1.15837626 4.05431692 0 0 Z " fill="#DEA1A8" transform="translate(88,409)"/>
<path d="M0 0 C-0.33 2.31 -0.66 4.62 -1 7 C-4.96 7.66 -8.92 8.32 -13 9 C-13.33 9.99 -13.66 10.98 -14 12 C-14.495 11.01 -14.495 11.01 -15 10 C-15.66 10 -16.32 10 -17 10 C-17 9.34 -17 8.68 -17 8 C-17.69963867 8.15629883 -18.39927734 8.31259766 -19.12011719 8.47363281 C-24.446458 9.44714848 -29.84927329 9.51317669 -35.25 9.75 C-37.03470703 9.85248047 -37.03470703 9.85248047 -38.85546875 9.95703125 C-46.01780168 10.26568427 -51.3649514 9.76223053 -58 7 C-54.66382847 5.11851786 -52.95753821 5.00865265 -49.17285156 5.68945312 C-31.14861817 8.26550086 -16.31272446 0 0 0 Z " fill="#C4A158" transform="translate(289,358)"/>
<path d="M0 0 C18.62156758 3.86499434 37.86154789 8.25428267 52 22 C52 22.66 52 23.32 52 24 C49.36 24 46.72 24 44 24 C43.505 21.03 43.505 21.03 43 18 C42.01 18 41.02 18 40 18 C40 17.34 40 16.68 40 16 C38.68 16 37.36 16 36 16 C36 15.34 36 14.68 36 14 C33.525 13.505 33.525 13.505 31 13 C31 12.34 31 11.68 31 11 C28.66836622 10.32741333 26.3347961 9.66152556 24 9 C23.29875 8.79375 22.5975 8.5875 21.875 8.375 C19.9397403 7.90710192 19.9397403 7.90710192 17.6875 8.125 C13.95693295 7.95148525 11.3711805 6.58643788 8 5 C8 4.34 8 3.68 8 3 C6.02 3.66 4.04 4.32 2 5 C2 4.34 2 3.68 2 3 C1.34 3 0.68 3 0 3 C0 2.01 0 1.02 0 0 Z " fill="#C6A059" transform="translate(300,240)"/>
<path d="M0 0 C0.33 0.66 0.66 1.32 1 2 C1.8544873 1.83395264 2.70897461 1.66790527 3.58935547 1.49682617 C9.42725814 0.64642303 15.24509976 1.09417207 21.125 1.3125 C22.39988281 1.34794922 23.67476562 1.38339844 24.98828125 1.41992188 C26.21160156 1.46310547 27.43492187 1.50628906 28.6953125 1.55078125 C30.3661792 1.60745972 30.3661792 1.60745972 32.07080078 1.6652832 C35 2 35 2 39 4 C25.47 4 11.94 4 -2 4 C-2 26.11 -2 48.22 -2 71 C-2.33 71 -2.66 71 -3 71 C-3 48.56 -3 26.12 -3 3 C-2.34 3 -1.68 3 -1 3 C-0.67 2.01 -0.34 1.02 0 0 Z " fill="#E3D199" transform="translate(226,243)"/>
<path d="M0 0 C2 2 2 2 2 5 C2.763125 5.103125 3.52625 5.20625 4.3125 5.3125 C7.26578515 6.06799155 7.95867834 6.86992523 10 9 C10.70125 9.165 11.4025 9.33 12.125 9.5 C12.74375 9.665 13.3625 9.83 14 10 C14.495 11.485 14.495 11.485 15 13 C14.46342773 12.8138916 13.92685547 12.6277832 13.37402344 12.43603516 C7.71932526 10.5084634 2.03296776 8.86916392 -3.75 7.375 C-4.98556641 7.05015625 -4.98556641 7.05015625 -6.24609375 6.71875 C-10.14715084 5.70108293 -14.0317111 4.72590651 -18 4 C-18 3.67 -18 3.34 -18 3 C-6.01772817 -0.64018385 -6.01772817 -0.64018385 0 0 Z " fill="#100F0B" transform="translate(319,237)"/>
<path d="M0 0 C0 0.66 0 1.32 0 2 C1.65 2.33 3.3 2.66 5 3 C5.33 3.99 5.66 4.98 6 6 C6.99 6 7.98 6 9 6 C9.33 6.99 9.66 7.98 10 9 C11.65 8.67 13.3 8.34 15 8 C16 10 16 10 16 13 C16.350625 13.845625 16.70125 14.69125 17.0625 15.5625 C17.5265625 16.7690625 17.5265625 16.7690625 18 18 C17.67 18.66 17.34 19.32 17 20 C16.01 20 15.02 20 14 20 C13.10687871 18.62596725 12.21896425 17.24831015 11.35546875 15.85546875 C6.93175686 9.79995536 1.05300799 5.401024 -6 3 C-6 2.34 -6 1.68 -6 1 C-4 0 -4 0 0 0 Z " fill="#E5D69B" transform="translate(286,144)"/>
<path d="M0 0 C0.33 0 0.66 0 1 0 C1.22171552 2.60365928 1.42784859 5.20696493 1.625 7.8125 C1.68945312 8.55048828 1.75390625 9.28847656 1.8203125 10.04882812 C2.2265625 15.66015625 2.2265625 15.66015625 0 19 C-0.3257721 21.07736917 -0.3257721 21.07736917 -0.31884766 23.37963867 C-0.33871735 24.26032516 -0.35858704 25.14101166 -0.37905884 26.04838562 C-0.39061005 26.99534805 -0.40216125 27.94231049 -0.4140625 28.91796875 C-0.43342865 29.89034988 -0.4527948 30.86273102 -0.4727478 31.86457825 C-0.5325555 34.97212944 -0.5789339 38.07971765 -0.625 41.1875 C-0.66317867 43.293636 -0.70223033 45.39975637 -0.7421875 47.50585938 C-0.83825811 52.67044605 -0.92228491 57.83510582 -1 63 C-1.33 63 -1.66 63 -2 63 C-4.79404004 42.11229743 -3.30474337 20.72495973 0 0 Z " fill="#84575D" transform="translate(12,211)"/>
<path d="M0 0 C0.66 0.33 1.32 0.66 2 1 C2.86257156 12.64471612 -3.09082509 23.10596261 -10.546875 31.8046875 C-12.65212972 33.53642929 -14.36597434 33.21356965 -17 33 C-16.67 32.34 -16.34 31.68 -16 31 C-13.9375 30.375 -13.9375 30.375 -12 30 C-11.67 27.69 -11.34 25.38 -11 23 C-9.7934375 22.6596875 -9.7934375 22.6596875 -8.5625 22.3125 C-7.716875 21.879375 -6.87125 21.44625 -6 21 C-5.10613836 18.45224694 -5.10613836 18.45224694 -5 16 C-4.34 16 -3.68 16 -3 16 C-2.855625 15.278125 -2.71125 14.55625 -2.5625 13.8125 C-2.21233883 12.06169413 -1.85878148 10.31155971 -1.5 8.5625 C-0.94467179 5.7164429 -0.46589573 2.8619309 0 0 Z M-20 33 C-19.01 33 -18.02 33 -17 33 C-17.66 34.32 -18.32 35.64 -19 37 C-19.33 35.68 -19.66 34.36 -20 33 Z " fill="#EADAA1" transform="translate(364,314)"/>
<path d="M0 0 C2.13671875 -0.00390625 2.13671875 -0.00390625 5 1 C7.25787371 3.47472732 9.01075602 6.24562123 10.8125 9.0625 C11.31458984 9.82111328 11.81667969 10.57972656 12.33398438 11.36132812 C13.56966902 13.23250774 14.79072966 15.11168518 16 17 C15.67 17.66 15.34 18.32 15 19 C14.38125 18.814375 13.7625 18.62875 13.125 18.4375 C10.95839822 17.76313824 10.95839822 17.76313824 9 19 C8.34 16.03 7.68 13.06 7 10 C6.01 10.33 5.02 10.66 4 11 C2.03810791 7.3321148 0.60698743 4.12751449 0 0 Z " fill="#E7BBBE" transform="translate(56,373)"/>
<path d="M0 0 C22.11 0 44.22 0 67 0 C63.12205916 1.93897042 62.112799 2.19970658 58.0625 2 C54.22291571 1.9092565 51.46184595 2.15368216 48 4 C48 3.01 48 2.02 48 1 C42.50058401 1.11820571 37.00135035 1.24245121 31.50219727 1.37231445 C29.63114134 1.41564622 27.76004631 1.45732257 25.88891602 1.49731445 C23.20056369 1.55505949 20.51240785 1.61874181 17.82421875 1.68359375 C16.56782845 1.70866249 16.56782845 1.70866249 15.28605652 1.73423767 C11.96326712 1.81914061 9.17247982 1.94250673 6 3 C2.8125 2.0625 2.8125 2.0625 0 1 C0 0.67 0 0.34 0 0 Z " fill="#C09A55" transform="translate(168,130)"/>
<path d="M0 0 C2.56229028 2.27677793 3.80703414 4.41287292 5.125 7.5625 C5.45757812 8.34753906 5.79015625 9.13257813 6.1328125 9.94140625 C6.41898437 10.62074219 6.70515625 11.30007812 7 12 C7.33 12.66 7.66 13.32 8 14 C8.08308638 15.37548156 8.10736016 16.75485796 8.09765625 18.1328125 C8.09443359 18.93847656 8.09121094 19.74414062 8.08789062 20.57421875 C8.07951172 21.41597656 8.07113281 22.25773437 8.0625 23.125 C8.05798828 23.97449219 8.05347656 24.82398438 8.04882812 25.69921875 C8.03702874 27.79950909 8.01909306 29.8997633 8 32 C7.01 31.67 6.02 31.34 5 31 C5.165 30.38125 5.33 29.7625 5.5 29.125 C6.20075317 24.74529271 6.07734251 20.42571011 6 16 C5.34 16 4.68 16 4 16 C3.67 15.01 3.34 14.02 3 13 C2.34 13 1.68 13 1 13 C0.875 7.25 0.875 7.25 2 5 C1.34 5 0.68 5 0 5 C0 3.35 0 1.7 0 0 Z " fill="#CFAE67" transform="translate(343,160)"/>
<path d="M0 0 C0.33 0 0.66 0 1 0 C1.02734857 2.02075566 1.0465517 4.04162221 1.0625 6.0625 C1.07410156 7.18785156 1.08570313 8.31320313 1.09765625 9.47265625 C0.90317393 16.49735768 -0.4838597 21.72535255 -3.5625 27.9375 C-3.89185547 28.62134766 -4.22121094 29.30519531 -4.56054688 30.00976562 C-5.36517039 31.67731871 -6.1813897 33.33926839 -7 35 C-9.03478348 28.45962452 -5.94769317 22.76722577 -3 17 C-2.30092586 14.26427415 -2.30092586 14.26427415 -2 12 C-1.34 12 -0.68 12 0 12 C0 8.04 0 4.08 0 0 Z " fill="#B99752" transform="translate(351,180)"/>
<path d="M0 0 C2.96297731 4.44446597 3.57607187 9.26033478 4.6875 14.4375 C4.92533203 15.48744141 5.16316406 16.53738281 5.40820312 17.61914062 C5.62798828 18.63041016 5.84777344 19.64167969 6.07421875 20.68359375 C6.27619873 21.60712646 6.47817871 22.53065918 6.6862793 23.48217773 C7 26 7 26 6 30 C5.01 27.03 4.02 24.06 3 21 C2.34 21 1.68 21 1 21 C1.020625 19.989375 1.04125 18.97875 1.0625 17.9375 C1.08346737 14.06055476 1.08346737 14.06055476 0.5 10.5 C-0.00694451 6.95138846 -0.073046 3.57925397 0 0 Z " fill="#8B5B60" transform="translate(480,182)"/>
<path d="M0 0 C0.66 0.33 1.32 0.66 2 1 C2 1.99 2 2.98 2 4 C0.33333333 4 -1.33333333 4 -3 4 C-3.66 4.825 -4.32 5.65 -5 6.5 C-5.66 7.325 -6.32 8.15 -7 9 C-7.66 9 -8.32 9 -9 9 C-13.07488089 10.73399187 -15.64439674 12.20486142 -18 16 C-18 15.34 -18 14.68 -18 14 C-19.65 14.33 -21.3 14.66 -23 15 C-16.91185205 8.55036827 -8.05688214 3.53951916 0 0 Z " fill="#925F66" transform="translate(141,31)"/>
<path d="M0 0 C3.96 0 7.92 0 12 0 C12.33 1.32 12.66 2.64 13 4 C12 5 12 5 9.27734375 5.09765625 C7.62412109 5.08025391 7.62412109 5.08025391 5.9375 5.0625 C4.83277344 5.05347656 3.72804687 5.04445313 2.58984375 5.03515625 C1.30787109 5.01775391 1.30787109 5.01775391 0 5 C0 3.35 0 1.7 0 0 Z " fill="#F4E29D" transform="translate(147,370)"/>
<path d="M0 0 C0.99 0.33 1.98 0.66 3 1 C3 1.66 3 2.32 3 3 C4.32 3.33 5.64 3.66 7 4 C7 4.66 7 5.32 7 6 C7.99 5.67 8.98 5.34 10 5 C10 5.99 10 6.98 10 8 C10.598125 7.773125 11.19625 7.54625 11.8125 7.3125 C12.8953125 7.1578125 12.8953125 7.1578125 14 7 C15.75 8.4375 15.75 8.4375 17 10 C14.01369585 11.31397382 12.87926862 10.95588661 9.75 9.8125 C8.49293802 9.22316772 7.24328187 8.61787341 6 8 C5.31035156 7.66226562 4.62070312 7.32453125 3.91015625 6.9765625 C1.93323766 5.99730674 -0.03411721 5.00118154 -2 4 C-3.33286778 3.33240305 -4.66607565 2.66548332 -6 2 C-4.02 2 -2.04 2 0 2 C0 1.34 0 0.68 0 0 Z " fill="#CDAA63" transform="translate(286,249)"/>
<path d="M0 0 C0.33 0.66 0.66 1.32 1 2 C2.32 1.67 3.64 1.34 5 1 C0.10824898 7.26755599 -5.60976003 12.28915495 -12 17 C-12.33 16.34 -12.66 15.68 -13 15 C-12.34 15 -11.68 15 -11 15 C-9.79371992 12.66785852 -8.8345262 10.50357861 -8 8 C-7.01 7.67 -6.02 7.34 -5 7 C-4.67 6.34 -4.34 5.68 -4 5 C-3 3 -3 3 0 2 C0 1.34 0 0.68 0 0 Z " fill="#D3929B" transform="translate(99,74)"/>
<path d="M0 0 C-0.33 2.31 -0.66 4.62 -1 7 C-4.96 7.66 -8.92 8.32 -13 9 C-13.33 9.99 -13.66 10.98 -14 12 C-14.33 11.34 -14.66 10.68 -15 10 C-15.66 10 -16.32 10 -17 10 C-17 9.34 -17 8.68 -17 8 C-14.03 7.34 -11.06 6.68 -8 6 C-7.67 4.68 -7.34 3.36 -7 2 C-4.55683729 0.74709605 -2.75474605 0 0 0 Z " fill="#D5AE61" transform="translate(289,358)"/>
<path d="M0 0 C9.15832679 0.63160874 18.88934473 2.53413303 27 7 C26.67 8.32 26.34 9.64 26 11 C26 10.34 26 9.68 26 9 C24.35 9.33 22.7 9.66 21 10 C21 8.68 21 7.36 21 6 C18.69 6 16.38 6 14 6 C14 5.34 14 4.68 14 4 C12.989375 3.855625 11.97875 3.71125 10.9375 3.5625 C7.29166667 3.04166667 3.64583333 2.52083333 0 2 C0 1.34 0 0.68 0 0 Z " fill="#DDCE97" transform="translate(291,133)"/>
<path d="M0 0 C0.66 0.33 1.32 0.66 2 1 C2 1.66 2 2.32 2 3 C0.274773 3.67679658 -1.45538939 4.34102 -3.1875 5 C-4.15042969 5.37125 -5.11335938 5.7425 -6.10546875 6.125 C-8.92182358 6.97636772 -11.08164439 7.17072647 -14 7 C-9.29739036 1.18361439 -7.83495924 -0.27981997 0 0 Z " fill="#D3AF5C" transform="translate(315,233)"/>
<path d="M0 0 C3.07393213 3.07393213 3.84749009 6.92636988 5.1875 11 C5.47302734 11.83273438 5.75855469 12.66546875 6.05273438 13.5234375 C6.31763672 14.32007813 6.58253906 15.11671875 6.85546875 15.9375 C7.09934326 16.66839844 7.34321777 17.39929688 7.59448242 18.15234375 C8 20 8 20 7 22 C6.01 21.67 5.02 21.34 4 21 C2.89786379 18.27366306 2 15.95855967 2 13 C1.34 12.34 0.68 11.68 0 11 C0.66 10.67 1.32 10.34 2 10 C1.34 9.01 0.68 8.02 0 7 C-0.07905064 4.66800612 -0.08798769 2.33167378 0 0 Z " fill="#B1727A" transform="translate(472,159)"/>
<path d="M0 0 C1.98 0.66 3.96 1.32 6 2 C5.67 4.31 5.34 6.62 5 9 C4.01 9 3.02 9 2 9 C2.33 10.32 2.66 11.64 3 13 C2.34 13 1.68 13 1 13 C0.814375 11.63875 0.814375 11.63875 0.625 10.25 C0.07890323 7.41029677 -0.57263803 5.47409409 -2 3 C-1.34 2.01 -0.68 1.02 0 0 Z " fill="#F5C5CA" transform="translate(473,316)"/>
<path d="M0 0 C2.94014391 2.36048139 3.92891499 3.70593608 4.828125 7.42578125 C4.96734375 8.70839844 5.1065625 9.99101562 5.25 11.3125 C5.39953125 12.58738281 5.5490625 13.86226562 5.703125 15.17578125 C5.98472864 18.80328075 6.05645321 22.3634726 6 26 C3.10172261 23.10172261 3.06092156 19.71465718 2.4375 15.8125 C2.24897461 14.6977832 2.24897461 14.6977832 2.05664062 13.56054688 C1.30153501 9.04968037 0.62998525 4.52989393 0 0 Z " fill="#AA7A7F" transform="translate(466,182)"/>
<path d="M0 0 C0 0.66 0 1.32 0 2 C-0.66 2 -1.32 2 -2 2 C-1.67 3.65 -1.34 5.3 -1 7 C-4.69541586 7.95024979 -7.30458414 7.95024979 -11 7 C-10.375 4.625 -10.375 4.625 -9 2 C-5.79867869 0.56962239 -3.50492555 0 0 0 Z " fill="#E3A1AA" transform="translate(184,15)"/>
<path d="M0 0 C0.33 0.66 0.66 1.32 1 2 C1.66 2.33 2.32 2.66 3 3 C3 7 3 7 1.5 8.75 C1.005 9.1625 0.51 9.575 0 10 C-0.99 9.67 -1.98 9.34 -3 9 C-3.99 10.485 -3.99 10.485 -5 12 C-5.99 11.67 -6.98 11.34 -8 11 C-5.36 7.37 -2.72 3.74 0 0 Z " fill="#D9A9AD" transform="translate(432,384)"/>
<path d="M0 0 C0.66 0.66 1.32 1.32 2 2 C1.01 3.485 1.01 3.485 0 5 C-0.66 5 -1.32 5 -2 5 C-2 5.66 -2 6.32 -2 7 C-3.98139735 8.36757038 -6.05472212 9.50345036 -8.15234375 10.68359375 C-10.30967459 11.94711956 -10.30967459 11.94711956 -11 15 C-12.65 15.33 -14.3 15.66 -16 16 C-11.17917294 10.03739811 -5.77505724 5.03320206 0 0 Z " fill="#A76F76" transform="translate(96,62)"/>
<path d="M0 0 C1.2065625 0.0309375 1.2065625 0.0309375 2.4375 0.0625 C2.210625 0.59875 1.98375 1.135 1.75 1.6875 C1.30160764 5.09528195 2.88064901 7.07853561 4.4375 10.0625 C4.1075 10.7225 3.7775 11.3825 3.4375 12.0625 C2.4475 12.0625 1.4575 12.0625 0.4375 12.0625 C-2.22779679 8.57711189 -3.16759494 5.40645569 -3.5625 1.0625 C-2.5625 0.0625 -2.5625 0.0625 0 0 Z " fill="#F6E39D" transform="translate(299.5625,151.9375)"/>
<path d="M0 0 C0.99 0.66 1.98 1.32 3 2 C2.67 3.32 2.34 4.64 2 6 C3.32 6 4.64 6 6 6 C5.34 7.98 4.68 9.96 4 12 C2.82174642 11.09827532 1.65768423 10.17798498 0.5 9.25 C-0.1496875 8.73953125 -0.799375 8.2290625 -1.46875 7.703125 C-3 6 -3 6 -3 2 C-2.34 2 -1.68 2 -1 2 C-0.67 1.34 -0.34 0.68 0 0 Z " fill="#D9A0A8" transform="translate(406,76)"/>
<path d="M0 0 C0.66 0 1.32 0 2 0 C3 6.625 3 6.625 3 10 C3.33 10.99 3.66 11.98 4 13 C3.01 13.66 2.02 14.32 1 15 C-0.5 13.9375 -0.5 13.9375 -2 12 C-2.1875 8.3125 -2.1875 8.3125 -2 5 C-1.34 5 -0.68 5 0 5 C0 3.35 0 1.7 0 0 Z " fill="#D8A0A6" transform="translate(28,329)"/>
<path d="M0 0 C0 0.33 0 0.66 0 1 C-3.43564022 2.00646726 -6.87379629 3.0040545 -10.3125 4 C-11.28896484 4.28617188 -12.26542969 4.57234375 -13.27148438 4.8671875 C-14.67817383 5.27324219 -14.67817383 5.27324219 -16.11328125 5.6875 C-16.97735596 5.93886719 -17.84143066 6.19023438 -18.73168945 6.44921875 C-21 7 -21 7 -24 7 C-24 6.34 -24 5.68 -24 5 C-23.01 4.731875 -22.02 4.46375 -21 4.1875 C-17.52360369 3.19828154 -14.16744792 1.9846349 -10.796875 0.68359375 C-6.66776132 -0.88726471 -4.32573554 -0.86514711 0 0 Z " fill="#C89AA1" transform="translate(200,26)"/>
<path d="M0 0 C1 2 1 2 0.0625 5.125 C-0.288125 6.07375 -0.63875 7.0225 -1 8 C-1.66 8 -2.32 8 -3 8 C-3 8.66 -3 9.32 -3 10 C-3.639375 10.103125 -4.27875 10.20625 -4.9375 10.3125 C-5.9584375 10.6528125 -5.9584375 10.6528125 -7 11 C-7.33 11.99 -7.66 12.98 -8 14 C-9.65 14 -11.3 14 -13 14 C-12.34 13.360625 -11.68 12.72125 -11 12.0625 C-7.14346256 8.2170765 -3.59166578 4.09075581 0 0 Z " fill="#231E11" transform="translate(356,341)"/>
<path d="M0 0 C0.33 0.66 0.66 1.32 1 2 C3.52733235 2.65555119 3.52733235 2.65555119 6 3 C6.33 3.99 6.66 4.98 7 6 C7.99 6.33 8.98 6.66 10 7 C10.33 9.31 10.66 11.62 11 14 C7.73587642 10.82654652 4.81870766 7.57036304 2 4 C1.01769502 2.9826127 0.02530403 1.97403883 -1 1 C-0.67 0.67 -0.34 0.34 0 0 Z " fill="#22170C" transform="translate(349,258)"/>
<path d="M0 0 C0.33 0 0.66 0 1 0 C1.22171552 2.60365928 1.42784859 5.20696493 1.625 7.8125 C1.68945312 8.55048828 1.75390625 9.28847656 1.8203125 10.04882812 C2.2265625 15.66015625 2.2265625 15.66015625 0 19 C-0.38499891 20.65549531 -0.72793135 22.3222433 -1 24 C-1.33 24 -1.66 24 -2 24 C-2.28545428 15.86455314 -1.18396883 8.02350304 0 0 Z " fill="#A3717A" transform="translate(12,211)"/>
<path d="M0 0 C17.18761176 3.78127459 17.18761176 3.78127459 23 10 C22.01 10.33 21.02 10.66 20 11 C19.67 10.34 19.34 9.68 19 9 C17.845 8.690625 16.69 8.38125 15.5 8.0625 C14.345 7.711875 13.19 7.36125 12 7 C11.67 6.01 11.34 5.02 11 4 C7.37 3.34 3.74 2.68 0 2 C0 1.34 0 0.68 0 0 Z " fill="#261E0E" transform="translate(268,143)"/>
<path d="M0 0 C0.66 0.33 1.32 0.66 2 1 C1.01 3.64 0.02 6.28 -1 9 C-3.31 9 -5.62 9 -8 9 C-8 8.01 -8 7.02 -8 6 C-6.25 4.39453125 -6.25 4.39453125 -4 2.8125 C-3.2575 2.28269531 -2.515 1.75289062 -1.75 1.20703125 C-1.1725 0.80871094 -0.595 0.41039062 0 0 Z " fill="#B3757E" transform="translate(116,46)"/>
<path d="M0 0 C0.66 0.99 1.32 1.98 2 3 C1.67 3.66 1.34 4.32 1 5 C-0.32 5 -1.64 5 -3 5 C-2.67 6.32 -2.34 7.64 -2 9 C-5.375 9.625 -5.375 9.625 -9 10 C-9.66 9.34 -10.32 8.68 -11 8 C-7.37 5.36 -3.74 2.72 0 0 Z " fill="#CFAE68" transform="translate(301,349)"/>
<path d="M0 0 C0.99 0.33 1.98 0.66 3 1 C3 1.99 3 2.98 3 4 C4.32 4.33 5.64 4.66 7 5 C6.67 5.99 6.34 6.98 6 8 C4.3725363 7.38144369 2.74809644 6.75492695 1.125 6.125 C0.22007812 5.77695313 -0.68484375 5.42890625 -1.6171875 5.0703125 C-4 4 -4 4 -6 2 C-3 1 -3 1 0 2 C0 1.34 0 0.68 0 0 Z " fill="#CAA356" transform="translate(169,136)"/>
<path d="M0 0 C2.97 0.495 2.97 0.495 6 1 C3.89851796 4.98175544 1.63094642 7.35039045 -2 10 C-2.625 8.125 -2.625 8.125 -3 6 C-2.34 5.34 -1.68 4.68 -1 4 C-0.3574765 1.93125966 -0.3574765 1.93125966 0 0 Z " fill="#CF8D98" transform="translate(81,90)"/>
<path d="M0 0 C1.32 0.99 2.64 1.98 4 3 C3.835 3.7425 3.67 4.485 3.5 5.25 C2.88074304 8.19006578 2.88074304 8.19006578 3 12 C2.85302021 13.58528205 2.68602074 15.1688237 2.5 16.75 C2.4071875 17.54921875 2.314375 18.3484375 2.21875 19.171875 C2.1465625 19.77515625 2.074375 20.3784375 2 21 C1.67 21 1.34 21 1 21 C0.67 14.07 0.34 7.14 0 0 Z " fill="#EDD18C" transform="translate(306,174)"/>
<path d="M0 0 C0.66 0 1.32 0 2 0 C1.67 1.32 1.34 2.64 1 4 C-5.61809577 6.46254726 -12.00439516 6.18935472 -19 6 C-19 5.67 -19 5.34 -19 5 C-12.66226532 3.46667709 -6.49850211 2.51553879 0 2 C0 1.34 0 0.68 0 0 Z " fill="#E6D297" transform="translate(172,364)"/>
<path d="M0 0 C2 3 2 3 1.8125 6.4375 C1.03464417 9.84809865 0.49754482 11.5985146 -2 14 C-2.99 14 -3.98 14 -5 14 C-5 14.66 -5 15.32 -5 16 C-6.32 15.67 -7.64 15.34 -9 15 C-8.236875 14.46375 -7.47375 13.9275 -6.6875 13.375 C-2.46645469 9.64477391 -0.81028639 5.50994747 0 0 Z " fill="#D6C48C" transform="translate(177,350)"/>
<path d="M0 0 C1.65 1.65 3.3 3.3 5 5 C4.01 5.495 4.01 5.495 3 6 C3 6.66 3 7.32 3 8 C1.34385343 8.38218767 -0.32457024 8.71395102 -2 9 C-3 8 -3 8 -3.0625 5.4375 C-3.041875 4.633125 -3.02125 3.82875 -3 3 C-2.01 2.67 -1.02 2.34 0 2 C0 1.34 0 0.68 0 0 Z " fill="#D4B367" transform="translate(355,267)"/>
<path d="M0 0 C5.15464734 0.48324819 8.81550319 3.18610761 13 6 C12.67 6.99 12.34 7.98 12 9 C11.01 9.33 10.02 9.66 9 10 C8.62875 9.2575 8.2575 8.515 7.875 7.75 C5.67904862 4.52927131 3.28108675 3.04156509 0 1 C0 0.67 0 0.34 0 0 Z " fill="#E5D18F" transform="translate(319,142)"/>
<path d="M0 0 C0.33 0.66 0.66 1.32 1 2 C0.01 3.485 0.01 3.485 -1 5 C-1.66 5 -2.32 5 -3 5 C-3.268125 5.639375 -3.53625 6.27875 -3.8125 6.9375 C-5 9 -5 9 -8 10 C-8 10.66 -8 11.32 -8 12 C-9.65 12.33 -11.3 12.66 -13 13 C-9.0580583 8.11950075 -4.88049925 3.9419417 0 0 Z " fill="#301B1E" transform="translate(104,75)"/>
<path d="M0 0 C2.96175123 0.61277612 4.38058783 1.25372522 7 3 C5.59308393 3.72750788 4.17393978 4.43140353 2.75 5.125 C1.96109375 5.51945312 1.1721875 5.91390625 0.359375 6.3203125 C-2 7 -2 7 -4.296875 6.1171875 C-4.85890625 5.74851562 -5.4209375 5.37984375 -6 5 C-2.25 2 -2.25 2 0 2 C0 1.34 0 0.68 0 0 Z " fill="#1D1415" transform="translate(334,457)"/>
<path d="M0 0 C3 1 3 1 4 3 C4.99 3.66 5.98 4.32 7 5 C2.545 7.97 2.545 7.97 -2 11 C-2.66 10.01 -3.32 9.02 -4 8 C-3.01 7.67 -2.02 7.34 -1 7 C-0.67 4.69 -0.34 2.38 0 0 Z " fill="#BE8B90" transform="translate(385,442)"/>
<path d="M0 0 C-1.32 0.33 -2.64 0.66 -4 1 C-4 1.66 -4 2.32 -4 3 C-1.69 3.33 0.62 3.66 3 4 C3 4.66 3 5.32 3 6 C-2.28 5.01 -7.56 4.02 -13 3 C-13 2.67 -13 2.34 -13 2 C-11.21089097 1.47044766 -9.41860852 0.9516063 -7.625 0.4375 C-6.62726563 0.14746094 -5.62953125 -0.14257812 -4.6015625 -0.44140625 C-2 -1 -2 -1 0 0 Z " fill="#33250C" transform="translate(314,238)"/>
<path d="M0 0 C0.33 0 0.66 0 1 0 C1 1.98 1 3.96 1 6 C1.99 5.67 2.98 5.34 4 5 C3.67 6.65 3.34 8.3 3 10 C2.34 10 1.68 10 1 10 C0.71125 10.639375 0.4225 11.27875 0.125 11.9375 C-1 14 -1 14 -3 15 C-2.35812082 9.86496656 -1.31727753 5.0056546 0 0 Z " fill="#A77076" transform="translate(17,187)"/>
<path d="M0 0 C8.91 0 17.82 0 27 0 C23.12205916 1.93897042 22.112799 2.19970658 18.0625 2 C14.22291571 1.9092565 11.46184595 2.15368216 8 4 C8 3.01 8 2.02 8 1 C5.36 1 2.72 1 0 1 C0 0.67 0 0.34 0 0 Z " fill="#CFAA62" transform="translate(208,130)"/>
<path d="M0 0 C1.32 0 2.64 0 4 0 C4 0.99 4 1.98 4 3 C4.99 3 5.98 3 7 3 C7 5.64 7 8.28 7 11 C4.0444623 8.24829249 1.88436685 5.58029701 0 2 C0 1.34 0 0.68 0 0 Z " fill="#B99498" transform="translate(43,373)"/>
<path d="M0 0 C-2.47126394 1.64750929 -4.7609443 2.93723705 -7.4375 4.1875 C-8.19933594 4.55230469 -8.96117187 4.91710937 -9.74609375 5.29296875 C-12.28988738 6.09093521 -13.52455813 5.8852947 -16 5 C-13.32975467 3.21983645 -10.94969139 2.02836981 -8 0.8125 C-7.13375 0.44769531 -6.2675 0.08289063 -5.375 -0.29296875 C-3 -1 -3 -1 0 0 Z " fill="#2C2412" transform="translate(329,365)"/>
<path d="M0 0 C1.62723299 0.45034123 3.25173664 0.91055354 4.875 1.375 C5.77992188 1.63023437 6.68484375 1.88546875 7.6171875 2.1484375 C10 3 10 3 12 5 C8.37 5 4.74 5 1 5 C0.67 3.35 0.34 1.7 0 0 Z M-2 3 C-1.01 3.495 -1.01 3.495 0 4 C-0.99 4.495 -0.99 4.495 -2 5 C-2 4.34 -2 3.68 -2 3 Z " fill="#1F160F" transform="translate(276,250)"/>
<path d="M0 0 C0.33 0 0.66 0 1 0 C1.35475877 3.81365679 1.2619932 5.58442458 -0.8125 8.875 C-3 11 -3 11 -6 11 C-6 10.34 -6 9.68 -6 9 C-5.34 9 -4.68 9 -4 9 C-4 7.35 -4 5.7 -4 4 C-2.68 3.34 -1.36 2.68 0 2 C0 1.34 0 0.68 0 0 Z " fill="#CCA050" transform="translate(342,210)"/>
<path d="M0 0 C2.97 0 5.94 0 9 0 C9.99 1.98 10.98 3.96 12 6 C10.55903414 5.57405412 9.12231288 5.13373367 7.6875 4.6875 C6.88699219 4.44386719 6.08648437 4.20023437 5.26171875 3.94921875 C3 3 3 3 0 0 Z " fill="#A97981" transform="translate(140,466)"/>
<path d="M0 0 C2.97 0 5.94 0 9 0 C7.875 2.5 7.875 2.5 6 5 C2.8125 5.3125 2.8125 5.3125 0 5 C0 3.35 0 1.7 0 0 Z " fill="#DABA69" transform="translate(146,131)"/>
<path d="M0 0 C4.24404412 3.88026891 7.10917547 8.04254346 10 13 C7.10156266 11.70508227 5.96716228 10.95820654 3.9375 8.375 C2.9784375 7.199375 2.9784375 7.199375 2 6 C1.01 6 0.02 6 -1 6 C-0.67 4.02 -0.34 2.04 0 0 Z " fill="#2A1D1E" transform="translate(428,110)"/>
<path d="M0 0 C2 1 2 1 2.8515625 3.28515625 C3.10679687 4.20167969 3.36203125 5.11820313 3.625 6.0625 C3.88539063 6.98160156 4.14578125 7.90070313 4.4140625 8.84765625 C4.60742188 9.55792969 4.80078125 10.26820313 5 11 C3.02 9.68 1.04 8.36 -1 7 C-0.67 4.69 -0.34 2.38 0 0 Z M-3 6 C-2.34 6.66 -1.68 7.32 -1 8 C-1.66 8 -2.32 8 -3 8 C-3 7.34 -3 6.68 -3 6 Z " fill="#9F6D73" transform="translate(467,147)"/>
<path d="M0 0 C0 0.33 0 0.66 0 1 C-8.82244095 1.93855755 -17.17755905 1.93855755 -26 1 C-26 0.67 -26 0.34 -26 0 C-17.26956048 -1.42861738 -8.77089601 -0.65454448 0 0 Z " fill="#E8C8CA" transform="translate(264,6)"/>
<path d="M0 0 C0 1.32 0 2.64 0 4 C0.66 4.66 1.32 5.32 2 6 C-2.84659077 5.40895235 -6.60748167 4.02055843 -11 2 C-9.66666667 1.66666667 -8.33333333 1.33333333 -7 1 C-6.319375 0.814375 -5.63875 0.62875 -4.9375 0.4375 C-3 0 -3 0 0 0 Z " fill="#B08388" transform="translate(170,474)"/>
<path d="M0 0 C0.99 0.66 1.98 1.32 3 2 C3 2.66 3 3.32 3 4 C3.66 4 4.32 4 5 4 C5.33 4.99 5.66 5.98 6 7 C5.34 7 4.68 7 4 7 C4 7.66 4 8.32 4 9 C1 8 1 8 -1 5 C-1.66 4.67 -2.32 4.34 -3 4 C-3 3.34 -3 2.68 -3 2 C-2.01 2 -1.02 2 0 2 C0 1.34 0 0.68 0 0 Z " fill="#ECB3BA" transform="translate(78,411)"/>
<path d="M0 0 C0.33 0.66 0.66 1.32 1 2 C-2.00313748 3.50156874 -4.79067522 3.09281204 -8.125 3.0625 C-9.40632813 3.05347656 -10.68765625 3.04445313 -12.0078125 3.03515625 C-13.48894531 3.01775391 -13.48894531 3.01775391 -15 3 C-15 2.67 -15 2.34 -15 2 C-12.87707704 1.47076428 -10.75157949 0.95184623 -8.625 0.4375 C-7.44164062 0.14746094 -6.25828125 -0.14257812 -5.0390625 -0.44140625 C-2 -1 -2 -1 0 0 Z " fill="#BAA059" transform="translate(282,362)"/>
<path d="M0 0 C4.29 0.99 8.58 1.98 13 3 C13 3.66 13 4.32 13 5 C11.35 5 9.7 5 8 5 C8 4.34 8 3.68 8 3 C6.02 3.66 4.04 4.32 2 5 C2 4.34 2 3.68 2 3 C1.34 3 0.68 3 0 3 C0 2.01 0 1.02 0 0 Z " fill="#C5A161" transform="translate(300,240)"/>
<path d="M0 0 C1.125 1.75 1.125 1.75 2 4 C1.34 5.32 0.68 6.64 0 8 C-1.98 5.69 -3.96 3.38 -6 1 C-4.02 0.67 -2.04 0.34 0 0 Z " fill="#C7949A" transform="translate(85,419)"/>
<path d="M0 0 C0.99 0 1.98 0 3 0 C1.43358249 4.30764815 -0.68336156 8.06171464 -3 12 C-4.5 10.625 -4.5 10.625 -6 9 C-6 8.34 -6 7.68 -6 7 C-5.01 7 -4.02 7 -3 7 C-2.01 4.69 -1.02 2.38 0 0 Z " fill="#AA8C8F" transform="translate(454,372)"/>
<path d="M0 0 C3.48249231 1.25756667 6.06465849 2.7731892 9 5 C9.66 5 10.32 5 11 5 C11.33 6.65 11.66 8.3 12 10 C11.01 10.495 11.01 10.495 10 11 C9.61328125 10.54109375 9.2265625 10.0821875 8.828125 9.609375 C5.99804049 6.274919 3.15638645 3.03498697 0 0 Z " fill="#C09E5A" transform="translate(297,259)"/>
<path d="M0 0 C3.3 0 6.6 0 10 0 C10.33 0.66 10.66 1.32 11 2 C11.66 2.144375 12.32 2.28875 13 2.4375 C13.66 2.623125 14.32 2.80875 15 3 C15.33 3.99 15.66 4.98 16 6 C15.43152344 5.80664062 14.86304688 5.61328125 14.27734375 5.4140625 C9.54635062 3.81863577 4.81205575 2.33099414 0 1 C0 0.67 0 0.34 0 0 Z " fill="#2B200A" transform="translate(318,244)"/>
<path d="M0 0 C0.28875 0.61875 0.5775 1.2375 0.875 1.875 C1.93720042 4.13325765 1.93720042 4.13325765 4 6 C4.4140625 8.3828125 4.4140625 8.3828125 4.625 11.125 C4.69976562 12.03507813 4.77453125 12.94515625 4.8515625 13.8828125 C4.90054687 14.58148438 4.94953125 15.28015625 5 16 C2.3144406 13.3144406 1.93950026 10.62378672 1 7 C0.34 7 -0.32 7 -1 7 C-0.67 4.69 -0.34 2.38 0 0 Z " fill="#A87279" transform="translate(482,196)"/>
<path d="M0 0 C1.32 0.33 2.64 0.66 4 1 C5.29243536 5.1196377 6.26252625 8.66831683 6 13 C3.87838666 10.87838666 3.07013751 9.2266841 1.875 6.5 C1.52179688 5.7059375 1.16859375 4.911875 0.8046875 4.09375 C0 2 0 2 0 0 Z " fill="#261B0D" transform="translate(345,161)"/>
<path d="M0 0 C5.94859813 5.63551402 5.94859813 5.63551402 7 9 C6.625 11.75 6.625 11.75 6 14 C5.67 14 5.34 14 5 14 C5 12.02 5 10.04 5 8 C4.01 7.67 3.02 7.34 2 7 C0.8125 3.4375 0.8125 3.4375 0 0 Z " fill="#2C1D07" transform="translate(170,142)"/>
<path d="M0 0 C1 2 1 2 0.3125 5.5 C-1 9 -1 9 -3.125 10.4375 C-3.74375 10.623125 -4.3625 10.80875 -5 11 C-5.33 10.34 -5.66 9.68 -6 9 C-4.02 6.03 -2.04 3.06 0 0 Z " fill="#AF7680" transform="translate(53,110)"/>
<path d="M0 0 C0.33 0.66 0.66 1.32 1 2 C0.071875 2.4125 -0.85625 2.825 -1.8125 3.25 C-4.88054681 4.93441786 -6.19040465 6.08454083 -8 9 C-8 8.34 -8 7.68 -8 7 C-9.65 7.33 -11.3 7.66 -13 8 C-9.52772776 4.14191973 -5.22397847 0.80368899 0 0 Z " fill="#9D656B" transform="translate(131,38)"/>
<path d="M0 0 C2.97 0 5.94 0 9 0 C9.33 0.66 9.66 1.32 10 2 C12.52733235 2.65555119 12.52733235 2.65555119 15 3 C15 3.99 15 4.98 15 6 C10 4.33333333 5 2.66666667 0 1 C0 0.67 0 0.34 0 0 Z " fill="#B38288" transform="translate(323,33)"/>
<path d="M0 0 C1.75070517 0.11470137 3.50057536 0.24219028 5.25 0.375 C6.22453125 0.44460938 7.1990625 0.51421875 8.203125 0.5859375 C10.89633189 0.98465249 12.66963279 1.63507063 15 3 C12.34271875 4.73745313 11.10399645 5.00831972 7.875 4.75 C5 4 5 4 3 2 C2.01 1.34 1.02 0.68 0 0 Z " fill="#B08B8E" transform="translate(285,8)"/>
<path d="M0 0 C0.99 0 1.98 0 3 0 C4.4783226 2.95664519 4.06032783 5.74229737 4 9 C5.32 9.66 6.64 10.32 8 11 C7.34 11 6.68 11 6 11 C5.67 11.99 5.34 12.98 5 14 C4.16235732 12.04350603 3.33000941 10.08474444 2.5 8.125 C2.0359375 7.03445313 1.571875 5.94390625 1.09375 4.8203125 C0 2 0 2 0 0 Z " fill="#967176" transform="translate(28,343)"/>
<path d="M0 0 C-1.98 0.99 -1.98 0.99 -4 2 C-3.67 2.66 -3.34 3.32 -3 4 C-6.3 3.67 -9.6 3.34 -13 3 C-8.8341563 0.22277086 -4.9360889 -1.89849573 0 0 Z " fill="#2A1A1D" transform="translate(186,32)"/>
<path d="M0 0 C0.66 0.33 1.32 0.66 2 1 C1 2 0 3 -1 4 C-1.845625 4.86625 -2.69125 5.7325 -3.5625 6.625 C-6 9 -6 9 -8 10 C-8 9.34 -8 8.68 -8 8 C-8.66 7.34 -9.32 6.68 -10 6 C-8.3811004 4.96951963 -6.75467511 3.95085322 -5.125 2.9375 C-4.22007812 2.36902344 -3.31515625 1.80054688 -2.3828125 1.21484375 C-1.20332031 0.61349609 -1.20332031 0.61349609 0 0 Z " fill="#D2A2A9" transform="translate(366,446)"/>
<path d="M0 0 C1.46795245 3.81667636 0.59626457 6.32859149 -1 10 C-1.99 10.66 -2.98 11.32 -4 12 C-3.5317879 7.22423661 -2.75668002 3.95523655 0 0 Z " fill="#DCB6B9" transform="translate(463,327)"/>
<path d="M0 0 C0.99 0.33 1.98 0.66 3 1 C2.67 1.99 2.34 2.98 2 4 C-1.5625 5.6875 -1.5625 5.6875 -5 7 C-5.33 6.01 -5.66 5.02 -6 4 C-3.1875 1.9375 -3.1875 1.9375 0 0 Z " fill="#C9A35A" transform="translate(324,228)"/>
<path d="M0 0 C0.33 0.66 0.66 1.32 1 2 C2.32 1.67 3.64 1.34 5 1 C1.38671875 5.6875 1.38671875 5.6875 0 7 C-0.99 7 -1.98 7 -3 7 C-2.67 5.35 -2.34 3.7 -2 2 C-1.34 2 -0.68 2 0 2 C0 1.34 0 0.68 0 0 Z " fill="#CC8B95" transform="translate(99,74)"/>
<path d="M0 0 C1.65 0 3.3 0 5 0 C5 0.66 5 1.32 5 2 C5.99 2.33 6.98 2.66 8 3 C2.375 5.125 2.375 5.125 -1 4 C-0.67 2.68 -0.34 1.36 0 0 Z " fill="#191514" transform="translate(348,450)"/>
<path d="M0 0 C0.99 0.33 1.98 0.66 3 1 C3 1.66 3 2.32 3 3 C2.34 3 1.68 3 1 3 C1.66 3.66 2.32 4.32 3 5 C4 6 5 7 6 8 C5.34 8.66 4.68 9.32 4 10 C2.02 7.69 0.04 5.38 -2 3 C-1.34 2.01 -0.68 1.02 0 0 Z " fill="#BA9295" transform="translate(74,410)"/>
<path d="M0 0 C1.32 0.33 2.64 0.66 4 1 C2.54712339 2.33927721 1.08752741 3.67126847 -0.375 5 C-1.18710937 5.7425 -1.99921875 6.485 -2.8359375 7.25 C-5 9 -5 9 -7 9 C-7 8.34 -7 7.68 -7 7 C-6.34 7 -5.68 7 -5 7 C-5 6.34 -5 5.68 -5 5 C-4.34 5 -3.68 5 -3 5 C-2.67 4.34 -2.34 3.68 -2 3 C-1.34 2.01 -0.68 1.02 0 0 Z " fill="#DED29D" transform="translate(347,347)"/>
<path d="M0 0 C1.32 0.33 2.64 0.66 4 1 C1.35039045 4.63094642 -1.01824456 6.89851796 -5 9 C-5.33 8.01 -5.66 7.02 -6 6 C-5.01 6 -4.02 6 -3 6 C-3 5.34 -3 4.68 -3 4 C-2.34 4 -1.68 4 -1 4 C-0.67 2.68 -0.34 1.36 0 0 Z " fill="#2A2211" transform="translate(291,220)"/>
<path d="M0 0 C1.125 1.625 1.125 1.625 2 4 C1.125 7.25 1.125 7.25 0 10 C-0.66 10 -1.32 10 -2 10 C-1.67 8.68 -1.34 7.36 -1 6 C-1.99 5.67 -2.98 5.34 -4 5 C-2.68 3.35 -1.36 1.7 0 0 Z " fill="#D19199" transform="translate(38,163)"/>
<path d="M0 0 C0.33 0 0.66 0 1 0 C1 2.64 1 5.28 1 8 C0.01 8 -0.98 8 -2 8 C-2 9.65 -2 11.3 -2 13 C-2.66 13 -3.32 13 -4 13 C-4.33 13.99 -4.66 14.98 -5 16 C-4.34309381 12.21760329 -3.279869 8.78158474 -1.9375 5.1875 C-1.57527344 4.21167969 -1.21304687 3.23585937 -0.83984375 2.23046875 C-0.42412109 1.12638672 -0.42412109 1.12638672 0 0 Z " fill="#9C686E" transform="translate(29,152)"/>
<path d="M0 0 C-0.96371494 2.40928735 -1.65210163 3.76007009 -3.8125 5.25 C-6.32321365 6.11081611 -8.36348649 6.14647297 -11 6 C-8.24029211 2.78034079 -4.3526723 0 0 0 Z " fill="#29181A" transform="translate(147,47)"/>
<path d="M0 0 C1.22589844 0.29197266 1.22589844 0.29197266 2.4765625 0.58984375 C3.41628906 0.82380859 3.41628906 0.82380859 4.375 1.0625 C4.375 2.0525 4.375 3.0425 4.375 4.0625 C2.91484709 3.78008359 1.45690207 3.48623386 0 3.1875 C-0.81210938 3.02507812 -1.62421875 2.86265625 -2.4609375 2.6953125 C-4.625 2.0625 -4.625 2.0625 -6.625 0.0625 C-3.99249612 -1.25375194 -2.82320944 -0.68563658 0 0 Z " fill="#2F1E1F" transform="translate(182.625,465.9375)"/>
<path d="M0 0 C2.50298434 2.93828597 3.46930939 5.17902761 4 9 C3.01 9.495 3.01 9.495 2 10 C2 9.34 2 8.68 2 8 C1.34 8 0.68 8 0 8 C0 7.34 0 6.68 0 6 C-0.66 6 -1.32 6 -2 6 C-1.34 4.02 -0.68 2.04 0 0 Z " fill="#DEBF7D" transform="translate(362,278)"/>
<path d="M0 0 C0 0.66 0 1.32 0 2 C0.99 2.33 1.98 2.66 3 3 C0.75 4.125 0.75 4.125 -2 5 C-4.3125 4.125 -4.3125 4.125 -6 3 C-6 2.34 -6 1.68 -6 1 C-4 0 -4 0 0 0 Z " fill="#E1CC89" transform="translate(286,144)"/>
<path d="M0 0 C0.66 0.33 1.32 0.66 2 1 C2 1.99 2 2.98 2 4 C0.25 5.38671875 0.25 5.38671875 -2 6.6875 C-2.7425 7.12449219 -3.485 7.56148438 -4.25 8.01171875 C-4.8275 8.33785156 -5.405 8.66398437 -6 9 C-5.21007484 4.75074742 -3.15346563 2.91089135 0 0 Z " fill="#C38891" transform="translate(118,60)"/>
<path d="M0 0 C-0.33 0.99 -0.66 1.98 -1 3 C-4.0625 4.1875 -4.0625 4.1875 -7 5 C-7.33 3.68 -7.66 2.36 -8 1 C-3.375 -1.125 -3.375 -1.125 0 0 Z " fill="#C38289" transform="translate(374,40)"/>
<path d="M0 0 C2.30142435 1.78174788 3.80034391 3.16304165 4.48828125 6.046875 C4.72323102 8.0246611 4.86751458 10.01271872 5 12 C4.34 12 3.68 12 3 12 C3 10.35 3 8.7 3 7 C2.34 7 1.68 7 1 7 C0.67 4.69 0.34 2.38 0 0 Z " fill="#C6858C" transform="translate(466,182)"/>
<path d="M0 0 C1 3 1 3 -0.21484375 5.48046875 C-0.78332031 6.37378906 -1.35179687 7.26710937 -1.9375 8.1875 C-2.50339844 9.08855469 -3.06929687 9.98960937 -3.65234375 10.91796875 C-4.09707031 11.60503906 -4.54179688 12.29210937 -5 13 C-5.66 12.67 -6.32 12.34 -7 12 C-6.02296079 10.1863523 -5.04330895 8.37411183 -4.0625 6.5625 C-3.51722656 5.55316406 -2.97195312 4.54382813 -2.41015625 3.50390625 C-1 1 -1 1 0 0 Z " fill="#2A1718" transform="translate(59,128)"/>
<path d="M0 0 C0.33 0.99 0.66 1.98 1 3 C-0.28062485 4.7074998 -1.61767557 6.37373596 -3 8 C-3.33 8.99 -3.66 9.98 -4 11 C-4.99 11 -5.98 11 -7 11 C-5.5140084 6.40693504 -3.14985318 3.56430755 0 0 Z " fill="#916167" transform="translate(61,99)"/>
<path d="M0 0 C0.66 0.33 1.32 0.66 2 1 C-0.3125 3.5 -0.3125 3.5 -3 6 C-5.62113708 6 -7.50935112 5.68707555 -10 5 C-8.38007835 4.13624104 -6.75388139 3.28424146 -5.125 2.4375 C-4.22007812 1.96183594 -3.31515625 1.48617188 -2.3828125 0.99609375 C-1.20332031 0.50302734 -1.20332031 0.50302734 0 0 Z " fill="#97676D" transform="translate(154,25)"/>
<path d="M0 0 C4.95 0.99 9.9 1.98 15 3 C15 3.33 15 3.66 15 4 C13.741875 4.020625 12.48375 4.04125 11.1875 4.0625 C10.47980469 4.07410156 9.77210938 4.08570313 9.04296875 4.09765625 C7 4 7 4 4 3 C2.66893378 2.65772583 1.33599921 2.32248257 0 2 C0 1.34 0 0.68 0 0 Z " fill="#D8B0B4" transform="translate(193,472)"/>
<path d="M0 0 C0.99 0 1.98 0 3 0 C3.33 0.99 3.66 1.98 4 3 C0.5647952 5.29013653 -0.985331 5.17842973 -5 5 C-4.360625 4.731875 -3.72125 4.46375 -3.0625 4.1875 C-0.66868314 3.11332248 -0.66868314 3.11332248 0 0 Z " fill="#E3CA89" transform="translate(315,364)"/>
<path d="M0 0 C3.3 0.99 6.6 1.98 10 3 C9.67 4.32 9.34 5.64 9 7 C8.236875 6.505 7.47375 6.01 6.6875 5.5 C4.07636249 3.75631692 4.07636249 3.75631692 1 4 C0.67 2.68 0.34 1.36 0 0 Z " fill="#D7B168" transform="translate(223,360)"/>
<path d="M0 0 C1.5625 1.8125 1.5625 1.8125 3 4 C2.67 4.99 2.34 5.98 2 7 C1.01 7 0.02 7 -1 7 C-1.66 5.02 -2.32 3.04 -3 1 C-2.01 0.67 -1.02 0.34 0 0 Z " fill="#ECDA9C" transform="translate(301,157)"/>
<path d="M0 0 C5.28 0 10.56 0 16 0 C16 0.66 16 1.32 16 2 C14.906875 1.979375 13.81375 1.95875 12.6875 1.9375 C9.05615809 1.81455548 9.05615809 1.81455548 6 3 C2.8125 2.0625 2.8125 2.0625 0 1 C0 0.67 0 0.34 0 0 Z " fill="#CCA15B" transform="translate(168,130)"/>
<path d="M0 0 C0.99 0.66 1.98 1.32 3 2 C2.04270084 3.12588014 1.08412105 4.2506715 0.125 5.375 C-0.40867187 6.00148438 -0.94234375 6.62796875 -1.4921875 7.2734375 C-2.61432007 8.55836651 -3.79371975 9.79371975 -5 11 C-4.67 9.02 -4.34 7.04 -4 5 C-3.34 5 -2.68 5 -2 5 C-1.34 3.35 -0.68 1.7 0 0 Z " fill="#C88E97" transform="translate(75,101)"/>
<path d="M0 0 C1.65 0.33 3.3 0.66 5 1 C0.25 4.875 0.25 4.875 -2 6 C-4.625 5.0625 -4.625 5.0625 -7 4 C-3.25 2 -3.25 2 -1 2 C-0.67 1.34 -0.34 0.68 0 0 Z " fill="#E9A8B0" transform="translate(416,78)"/>
<path d="M0 0 C4.875 2.75 4.875 2.75 6 5 C3.69 5.66 1.38 6.32 -1 7 C-0.67 4.69 -0.34 2.38 0 0 Z " fill="#A26E75" transform="translate(395,55)"/>
<path d="M0 0 C0.66 0.66 1.32 1.32 2 2 C1.690625 2.598125 1.38125 3.19625 1.0625 3.8125 C-0.10209704 6.08956772 -0.10209704 6.08956772 -1 9 C-1.66 9 -2.32 9 -3 9 C-3 8.01 -3 7.02 -3 6 C-3.66 5.34 -4.32 4.68 -5 4 C-4.34 4 -3.68 4 -3 4 C-2.67 3.01 -2.34 2.02 -2 1 C-1.34 0.67 -0.68 0.34 0 0 Z " fill="#D58C99" transform="translate(120,45)"/>
<path d="M0 0 C0.66 0.33 1.32 0.66 2 1 C0.02 3.31 -1.96 5.62 -4 8 C-4.33 6.68 -4.66 5.36 -5 4 C-3 1 -3 1 0 0 Z " fill="#231817" transform="translate(417,401)"/>
<path d="M0 0 C-2.50248865 1.66832577 -4.41149187 2.62381674 -7.1875 3.625 C-7.90292969 3.88539063 -8.61835938 4.14578125 -9.35546875 4.4140625 C-9.89816406 4.60742188 -10.44085938 4.80078125 -11 5 C-10 2 -10 2 -7.1875 0.25 C-4.03596914 -0.98589446 -3.03070628 -1.28222189 0 0 Z " fill="#DFCC91" transform="translate(331,362)"/>
<path d="M0 0 C2.97 0.495 2.97 0.495 6 1 C6 1.99 6 2.98 6 4 C3.03 3.67 0.06 3.34 -3 3 C-2.01 2.67 -1.02 2.34 0 2 C0 1.34 0 0.68 0 0 Z " fill="#B89195" transform="translate(190,483)"/>
<path d="M0 0 C0.33 1.32 0.66 2.64 1 4 C-0.9375 6.25 -0.9375 6.25 -3 8 C-3.99 7.67 -4.98 7.34 -6 7 C-4.02 4.69 -2.04 2.38 0 0 Z " fill="#D0A4AA" transform="translate(420,400)"/>
<path d="M0 0 C1.67542976 0.28604898 3.34385343 0.61781233 5 1 C2.60490662 3.89932357 0.68754757 4.50168276 -3 5 C-1.125 1.125 -1.125 1.125 0 0 Z " fill="#241C0D" transform="translate(166,362)"/>
<path d="M0 0 C0.33 0 0.66 0 1 0 C1.36923077 5.53846154 1.36923077 5.53846154 -0.5 7.875 C-1.2425 8.431875 -1.2425 8.431875 -2 9 C-2.33 6.69 -2.66 4.38 -3 2 C-2.34 2 -1.68 2 -1 2 C-0.67 1.34 -0.34 0.68 0 0 Z " fill="#C59097" transform="translate(27,328)"/>
<path d="M0 0 C6.57142857 5.14285714 6.57142857 5.14285714 8 9 C4.56404834 7.47291037 1.88087546 5.40072955 -1 3 C-0.67 2.01 -0.34 1.02 0 0 Z " fill="#2E2109" transform="translate(301,263)"/>
<path d="M0 0 C0.66 0.33 1.32 0.66 2 1 C1.74476126 2.62752231 1.47025506 4.25203196 1.1875 5.875 C1.03667969 6.77992188 0.88585938 7.68484375 0.73046875 8.6171875 C0 11 0 11 -3 13 C-2.343621 8.51474352 -1.29925791 4.33085971 0 0 Z " fill="#392526" transform="translate(35,179)"/>
<path d="M0 0 C2.27795022 2.27795022 3.05219877 3.93787293 4 7 C3.625 9.3125 3.625 9.3125 3 11 C0.39665076 8.28817788 0.00543309 7.10866187 -0.1875 3.25 C-0.125625 2.1775 -0.06375 1.105 0 0 Z " fill="#976065" transform="translate(472,159)"/>
<path d="M0 0 C0.99 0.66 1.98 1.32 3 2 C2.67 3.32 2.34 4.64 2 6 C-0.97 5.505 -0.97 5.505 -4 5 C-3.67 4.01 -3.34 3.02 -3 2 C-2.34 2 -1.68 2 -1 2 C-0.67 1.34 -0.34 0.68 0 0 Z " fill="#E7A1AC" transform="translate(406,76)"/>
<path d="M0 0 C0.33 0.99 0.66 1.98 1 3 C0.01 3.66 -0.98 4.32 -2 5 C-2.33 5.99 -2.66 6.98 -3 8 C-4.65 8.33 -6.3 8.66 -8 9 C-7.04270084 7.87411986 -6.08412105 6.7493285 -5.125 5.625 C-4.59132813 4.99851562 -4.05765625 4.37203125 -3.5078125 3.7265625 C-2.38567993 2.44163349 -1.20628025 1.20628025 0 0 Z " fill="#87565D" transform="translate(88,69)"/>
<path d="M0 0 C0.33 0.99 0.66 1.98 1 3 C-1.25 5.0625 -1.25 5.0625 -4 7 C-5.32 6.67 -6.64 6.34 -8 6 C-5.36 4.02 -2.72 2.04 0 0 Z " fill="#2D181A" transform="translate(113,68)"/>
<path d="M0 0 C-5.22270869 2.66464729 -8.0819503 3.32854177 -14 2 C-9.53202599 -0.57767731 -4.97760384 -1.72301671 0 0 Z " fill="#352525" transform="translate(214,25)"/>
<path d="M0 0 C1 4 1 4 0.25 6.0625 C-0.99443419 7.99137299 -2.30547429 9.45952209 -4 11 C-4.66 10.67 -5.32 10.34 -6 10 C-4.02 6.7 -2.04 3.4 0 0 Z " fill="#C29CA0" transform="translate(443,367)"/>
<path d="M0 0 C2 3.75 2 3.75 2 6 C0.02 6.33 -1.96 6.66 -4 7 C-2.79618552 4.50638429 -1.54571278 2.31856917 0 0 Z " fill="#CBAF6F" transform="translate(299,215)"/>
<path d="M0 0 C0.66 0.33 1.32 0.66 2 1 C1.67 2.65 1.34 4.3 1 6 C0.34 6 -0.32 6 -1 6 C-1.33 6.99 -1.66 7.98 -2 9 C-2.66 9 -3.32 9 -4 9 C-2.80100302 5.9168649 -1.52299523 2.93720508 0 0 Z " fill="#A46973" transform="translate(38,134)"/>
<path d="M0 0 C0.33 0.99 0.66 1.98 1 3 C-4.14285714 7.42857143 -4.14285714 7.42857143 -8 8 C-5.33333333 5.33333333 -2.66666667 2.66666667 0 0 Z " fill="#CFA4AA" transform="translate(404,417)"/>
<path d="M0 0 C2.125 0.375 2.125 0.375 4 1 C1.03 3.475 1.03 3.475 -2 6 C-2 2 -2 2 0 0 Z " fill="#B2898E" transform="translate(427,410)"/>
<path d="M0 0 C1.65 0.33 3.3 0.66 5 1 C5.33 2.32 5.66 3.64 6 5 C5.21625 4.814375 4.4325 4.62875 3.625 4.4375 C1.02910225 3.74037734 1.02910225 3.74037734 -1 5 C-0.67 3.35 -0.34 1.7 0 0 Z " fill="#ECC2C4" transform="translate(66,387)"/>
<path d="M0 0 C0.99 0.33 1.98 0.66 3 1 C-1.455 4.465 -1.455 4.465 -6 8 C-6.33 7.34 -6.66 6.68 -7 6 C-6.34 6 -5.68 6 -5 6 C-4.731875 5.38125 -4.46375 4.7625 -4.1875 4.125 C-3 2 -3 2 0 0 Z " fill="#251C05" transform="translate(303,345)"/>
<path d="M0 0 C2.475 0.495 2.475 0.495 5 1 C4.34 2.65 3.68 4.3 3 6 C1.5 4.6875 1.5 4.6875 0 3 C0 2.01 0 1.02 0 0 Z " fill="#D1A147" transform="translate(313,272)"/>
<path d="M0 0 C-2.90092502 1.93395001 -3.89674737 2.30131941 -7.1875 2.625 C-8.445625 2.74875 -9.70375 2.8725 -11 3 C-8.21756596 -1.17365106 -4.53441502 -0.22300402 0 0 Z " fill="#C4A360" transform="translate(312,237)"/>
<path d="M0 0 C0.66 0.33 1.32 0.66 2 1 C2.625 4.0625 2.625 4.0625 3 7 C1.68 6.67 0.36 6.34 -1 6 C-1.042721 4.33388095 -1.04063832 2.66617115 -1 1 C-0.67 0.67 -0.34 0.34 0 0 Z " fill="#DB9199" transform="translate(482,202)"/>
<path d="M0 0 C2.31 1.98 4.62 3.96 7 6 C6.34 6.66 5.68 7.32 5 8 C4.67 7.01 4.34 6.02 4 5 C1.98491642 4.26676204 1.98491642 4.26676204 0 4 C0 2.68 0 1.36 0 0 Z " fill="#A47279" transform="translate(406,64)"/>
<path d="M0 0 C0.66 0.33 1.32 0.66 2 1 C1.67 2.32 1.34 3.64 1 5 C-0.32 5.33 -1.64 5.66 -3 6 C-3 4.35 -3 2.7 -3 1 C-2.01 0.67 -1.02 0.34 0 0 Z " fill="#DB9CA1" transform="translate(339,25)"/>
<path d="M0 0 C0 0.66 0 1.32 0 2 C-0.66 2 -1.32 2 -2 2 C-2 2.66 -2 3.32 -2 4 C-4.31 3.67 -6.62 3.34 -9 3 C-6.15236477 0.15236477 -3.96383452 0 0 0 Z " fill="#A7777D" transform="translate(184,15)"/>
<path d="M0 0 C-1.2065625 0.185625 -1.2065625 0.185625 -2.4375 0.375 C-3.283125 0.58125 -4.12875 0.7875 -5 1 C-5.33 1.66 -5.66 2.32 -6 3 C-8.97 2.505 -8.97 2.505 -12 2 C-7.72170329 -0.29194467 -4.74957752 -1.52664992 0 0 Z " fill="#AB7780" transform="translate(196,13)"/>
<path d="M0 0 C0.99 0 1.98 0 3 0 C1.60667426 3.36720387 0.0210714 4.9859524 -3 7 C-2.25 2.25 -2.25 2.25 0 0 Z " fill="#241718" transform="translate(405,412)"/>
<path d="M0 0 C2.52588702 2.36292656 3.88820837 3.66462511 5 7 C4.01 7.495 4.01 7.495 3 8 C3 7.34 3 6.68 3 6 C2.34 6 1.68 6 1 6 C0.67 4.02 0.34 2.04 0 0 Z M-1 6 C-0.34 6 0.32 6 1 6 C0.67 6.66 0.34 7.32 0 8 C-0.33 7.34 -0.66 6.68 -1 6 Z " fill="#D5AFB2" transform="translate(65,381)"/>
<path d="M0 0 C0.66 0 1.32 0 2 0 C3.2077558 3.62326739 2.54311128 4.64146369 1 8 C-1 6 -1 6 -1.1875 3.4375 C-1 1 -1 1 0 0 Z " fill="#F5BEC4" transform="translate(451,372)"/>
<path d="M0 0 C0.33 1.65 0.66 3.3 1 5 C-0.98 4.34 -2.96 3.68 -5 3 C-5 2.34 -5 1.68 -5 1 C-3 0 -3 0 0 0 Z " fill="#E4B4BA" transform="translate(55,364)"/>
<path d="M0 0 C1.98 0 3.96 0 6 0 C6 0.66 6 1.32 6 2 C5.01 2 4.02 2 3 2 C3.33 3.32 3.66 4.64 4 6 C3.01 5.67 2.02 5.34 1 5 C0.67 3.35 0.34 1.7 0 0 Z " fill="#F1C6C8" transform="translate(464,344)"/>
<path d="M0 0 C0.66 0 1.32 0 2 0 C2.6875 3.3125 2.6875 3.3125 3 7 C2.01 7.99 1.02 8.98 0 10 C0 6.7 0 3.4 0 0 Z " fill="#DBA8AF" transform="translate(42,342)"/>
<path d="M0 0 C0.66 0.33 1.32 0.66 2 1 C2 1.66 2 2.32 2 3 C1.34 3 0.68 3 0 3 C-0.33 4.32 -0.66 5.64 -1 7 C-1.66 7 -2.32 7 -3 7 C-3 5.02 -3 3.04 -3 1 C-2.01 0.67 -1.02 0.34 0 0 Z " fill="#F0B9BE" transform="translate(445,123)"/>
<path d="M0 0 C0.33 1.32 0.66 2.64 1 4 C-0.65 5.32 -2.3 6.64 -4 8 C-4.66 7.67 -5.32 7.34 -6 7 C-4.02 4.69 -2.04 2.38 0 0 Z " fill="#2D161A" transform="translate(87,91)"/>
<path d="M0 0 C2.42102911 1.18098981 3.82068009 2.2331559 5.5625 4.25 C0.5625 3.25 0.5625 3.25 -4.4375 2.25 C-4.4375 1.59 -4.4375 0.93 -4.4375 0.25 C-2.4375 -0.75 -2.4375 -0.75 0 0 Z " fill="#301A1C" transform="translate(360.4375,49.75)"/>
<path d="M0 0 C1.32 0 2.64 0 4 0 C4.33 1.32 4.66 2.64 5 4 C3.02 4 1.04 4 -1 4 C-0.67 2.68 -0.34 1.36 0 0 Z " fill="#E0989F" transform="translate(334,32)"/>
<path d="M0 0 C0 0.33 0 0.66 0 1 C-3.3 1.66 -6.6 2.32 -10 3 C-10.33 2.34 -10.66 1.68 -11 1 C-6.92630576 -1.03684712 -4.41062136 -1.0257259 0 0 Z " fill="#D3A5AA" transform="translate(200,26)"/>
<path d="M0 0 C1.32 0.33 2.64 0.66 4 1 C4 1.66 4 2.32 4 3 C3.34 3 2.68 3 2 3 C2 3.66 2 4.32 2 5 C0.68 4.67 -0.64 4.34 -2 4 C-1.34 2.68 -0.68 1.36 0 0 Z " fill="#F1BDC2" transform="translate(310,480)"/>
<path d="M0 0 C1.14926266 0.95421808 2.29430541 1.91352045 3.4375 2.875 C4.07558594 3.40867187 4.71367188 3.94234375 5.37109375 4.4921875 C7 6 7 6 8 8 C5.125 7.375 5.125 7.375 2 6 C0.625 2.875 0.625 2.875 0 0 Z " fill="#C4959C" transform="translate(88,409)"/>
<path d="M0 0 C0.99 0.33 1.98 0.66 3 1 C1.35 2.98 -0.3 4.96 -2 7 C-2.66 6.01 -3.32 5.02 -4 4 C-3.34 4 -2.68 4 -2 4 C-1.34 2.68 -0.68 1.36 0 0 Z " fill="#B49293" transform="translate(435,401)"/>
<path d="M0 0 C1.9375 0.1875 1.9375 0.1875 4 1 C5.25 3.0625 5.25 3.0625 6 5 C4.35 5 2.7 5 1 5 C1 4.01 1 3.02 1 2 C0.34 1.67 -0.32 1.34 -1 1 C-0.67 0.67 -0.34 0.34 0 0 Z " fill="#E1BE6D" transform="translate(298,353)"/>
<path d="M0 0 C1 2 1 2 0.3125 4.5625 C-0.120625 5.366875 -0.55375 6.17125 -1 7 C-2.32 7.33 -3.64 7.66 -5 8 C-3.35 5.36 -1.7 2.72 0 0 Z " fill="#CBB072" transform="translate(313,335)"/>
<path d="M0 0 C2 2 2 2 2 5 C-0.5 7.1875 -0.5 7.1875 -3 9 C-2.01 6.03 -1.02 3.06 0 0 Z " fill="#8F6368" transform="translate(33,143)"/>
<path d="M0 0 C2.97 0.495 2.97 0.495 6 1 C5.67 2.32 5.34 3.64 5 5 C5 4.34 5 3.68 5 3 C3.35 3.33 1.7 3.66 0 4 C0 2.68 0 1.36 0 0 Z " fill="#EDDDA1" transform="translate(312,139)"/>
<path d="M0 0 C0.33 0 0.66 0 1 0 C1 1.98 1 3.96 1 6 C-0.32 6.33 -1.64 6.66 -3 7 C-1.125 1.125 -1.125 1.125 0 0 Z " fill="#AE767E" transform="translate(42,127)"/>
<path d="M0 0 C0.33 0.66 0.66 1.32 1 2 C1.66 2 2.32 2 3 2 C3.33 1.34 3.66 0.68 4 0 C4.66 1.32 5.32 2.64 6 4 C3.36 4 0.72 4 -2 4 C-1.34 3.67 -0.68 3.34 0 3 C0 2.01 0 1.02 0 0 Z " fill="#F5CBCE" transform="translate(257,489)"/>
<path d="M0 0 C2.96175123 0.61277612 4.38058783 1.25372522 7 3 C5.02 3.66 3.04 4.32 1 5 C0.67 3.35 0.34 1.7 0 0 Z " fill="#B0868B" transform="translate(361,460)"/>
<path d="M0 0 C-0.66 1.32 -1.32 2.64 -2 4 C-3.65 3.01 -5.3 2.02 -7 1 C-3.375 -1.125 -3.375 -1.125 0 0 Z " fill="#1B1413" transform="translate(127,436)"/>
<path d="M0 0 C0.33 0.99 0.66 1.98 1 3 C-0.4375 5.1875 -0.4375 5.1875 -2 7 C-2.99 6.34 -3.98 5.68 -5 5 C-4.360625 4.731875 -3.72125 4.46375 -3.0625 4.1875 C-0.66868314 3.11332248 -0.66868314 3.11332248 0 0 Z " fill="#C4AB6A" transform="translate(307,343)"/>
<path d="M0 0 C0.99 0 1.98 0 3 0 C2.34 2.97 1.68 5.94 1 9 C-1 6 -1 6 -1 4 C-0.34 4 0.32 4 1 4 C0.67 2.68 0.34 1.36 0 0 Z " fill="#998184" transform="translate(475,325)"/>
<path d="M0 0 C2.475 0.99 2.475 0.99 5 2 C4.01 2.495 4.01 2.495 3 3 C3 3.66 3 4.32 3 5 C1.68 4.67 0.36 4.34 -1 4 C-0.67 2.68 -0.34 1.36 0 0 Z " fill="#1A1711" transform="translate(306,271)"/>
<path d="M0 0 C0.66 0.99 1.32 1.98 2 3 C0.35 4.32 -1.3 5.64 -3 7 C-3.66 6.67 -4.32 6.34 -5 6 C-3.35 4.02 -1.7 2.04 0 0 Z " fill="#341D20" transform="translate(80,99)"/>
<path d="M0 0 C1 2 1 2 0.0625 5.125 C-0.288125 6.07375 -0.63875 7.0225 -1 8 C-1.33 7.34 -1.66 6.68 -2 6 C-2.66 5.67 -3.32 5.34 -4 5 C-3.67 4.34 -3.34 3.68 -3 3 C-2.34 3 -1.68 3 -1 3 C-0.67 2.01 -0.34 1.02 0 0 Z " fill="#9E6D73" transform="translate(70,88)"/>
<path d="M0 0 C2.125 0.9375 2.125 0.9375 4 2 C0.25 5 0.25 5 -2 5 C-2 3.68 -2 2.36 -2 1 C-1.34 0.67 -0.68 0.34 0 0 Z " fill="#C68B93" transform="translate(108,68)"/>
<path d="M0 0 C-0.33 0.99 -0.66 1.98 -1 3 C-3.5625 4.1875 -3.5625 4.1875 -6 5 C-5.6875 3.0625 -5.6875 3.0625 -5 1 C-2 0 -2 0 0 0 Z " fill="#C88D95" transform="translate(137,50)"/>
</svg>
